<svg width="188" height="63" viewBox="0 0 188 63" fill="none" xmlns="http://www.w3.org/2000/svg">
<path d="M13.2201 60.8097C12.735 60.8097 12.272 60.8097 11.809 60.7879C10.927 60.766 9.89074 60.7222 8.87651 60.5254C7.92842 60.3504 7.06853 60.066 6.27479 59.6722C5.459 59.2566 4.7314 58.7316 4.09199 58.0972C3.45259 57.4629 2.90138 56.741 2.48246 55.9316C2.08558 55.1441 1.79895 54.3129 1.62257 53.3504C1.42413 52.3004 1.38003 51.2504 1.35799 50.441C1.35799 50.1129 1.33594 49.0191 1.33594 49.0191V13.1223C1.33594 13.1223 1.35799 12.0504 1.35799 11.7223C1.38003 10.9129 1.42413 9.84101 1.62257 8.81289C1.79895 7.85039 2.06354 7.01914 2.48246 6.23164C2.90138 5.42226 3.43054 4.67851 4.06995 4.06601C4.70935 3.43164 5.459 2.88476 6.27479 2.46914C7.09058 2.07539 7.92842 1.79102 8.87651 1.63789C9.93483 1.44102 10.9932 1.39727 11.809 1.37539L13.2201 1.35352H174.24L175.673 1.37539C176.467 1.39727 177.547 1.44102 178.583 1.63789C179.532 1.79102 180.391 2.07539 181.207 2.49101C182.001 2.90664 182.751 3.43164 183.39 4.06601C184.029 4.70039 184.559 5.42226 185 6.25351C185.396 7.04101 185.683 7.89414 185.837 8.81289C186.014 9.79726 186.08 10.8035 186.102 11.7441C186.102 12.1816 186.102 12.6629 186.102 13.1223C186.124 13.7129 186.124 14.2598 186.124 14.8285V47.3566C186.124 47.9254 186.124 48.4722 186.102 49.0191C186.102 49.5222 186.102 49.9816 186.102 50.4629C186.08 51.3816 186.014 52.3879 185.837 53.3504C185.683 54.3129 185.396 55.1441 185 55.9535C184.581 56.7629 184.029 57.4847 183.412 58.0972C182.773 58.7535 182.023 59.2785 181.229 59.6941C180.413 60.1097 179.598 60.3722 178.605 60.5472C177.591 60.7222 176.555 60.766 175.673 60.8097C175.21 60.8097 174.725 60.8316 174.262 60.8316H172.564L13.2201 60.8097Z" fill="black"/>
<path d="M38.7982 31.5662C38.7541 27.3006 42.326 25.2006 42.4803 25.1131C40.4519 22.1819 37.321 21.7881 36.2186 21.7662C33.5948 21.4819 31.0372 23.3194 29.6922 23.3194C28.3252 23.3194 26.2527 21.7881 24.0478 21.8319C21.1815 21.8756 18.5137 23.5162 17.0364 26.0756C14.0158 31.2819 16.2647 38.9381 19.1751 43.1381C20.6303 45.1943 22.3281 47.4912 24.5549 47.4256C26.7377 47.3381 27.5315 46.0475 30.1552 46.0475C32.757 46.0475 33.5066 47.4256 35.7776 47.36C38.1147 47.3162 39.5699 45.2818 40.981 43.2037C42.6567 40.8412 43.3402 38.5225 43.3623 38.3912C43.3182 38.3693 38.8423 36.685 38.7982 31.5662Z" fill="white"/>
<path d="M34.5214 18.9875C35.69 17.5437 36.4837 15.5531 36.2632 13.5625C34.5655 13.6281 32.4489 14.7219 31.2362 16.1437C30.1558 17.3906 29.1857 19.4469 29.4503 21.3719C31.3464 21.5031 33.3087 20.4094 34.5214 18.9875Z" fill="white"/>
<path d="M66.2782 42.1945H58.8699L57.084 47.4226H53.9531L60.9866 28.1289H64.2497L71.2832 47.4226H68.0862L66.2782 42.1945ZM59.6416 39.7883H65.5286L62.6402 31.3227H62.552L59.6416 39.7883Z" fill="white"/>
<path d="M86.4356 40.3805C86.4356 44.7555 84.0764 47.5555 80.5045 47.5555C78.4761 47.5555 76.8886 46.6586 76.0508 45.0836H75.9846V52.0617H73.0742V33.3367H75.8964V35.6773H75.9405C76.7563 34.168 78.4761 33.1836 80.4605 33.1836C84.0544 33.1836 86.4356 36.0055 86.4356 40.3805ZM83.437 40.3805C83.437 37.5367 81.9597 35.6555 79.6888 35.6555C77.4619 35.6555 75.9626 37.5586 75.9626 40.3805C75.9626 43.2242 77.4619 45.1055 79.6888 45.1055C81.9597 45.1055 83.437 43.2461 83.437 40.3805Z" fill="white"/>
<path d="M102.041 40.3805C102.041 44.7555 99.6819 47.5555 96.11 47.5555C94.0816 47.5555 92.4941 46.6586 91.6562 45.0836H91.5901V52.0617H88.6797V33.3367H91.5019V35.6773H91.546C92.3618 34.168 94.0816 33.1836 96.0659 33.1836C99.6598 33.1836 102.041 36.0055 102.041 40.3805ZM99.0425 40.3805C99.0425 37.5367 97.5652 35.6555 95.2942 35.6555C93.0673 35.6555 91.568 37.5586 91.568 40.3805C91.568 43.2242 93.0673 45.1055 95.2942 45.1055C97.5652 45.1055 99.0425 43.2461 99.0425 40.3805Z" fill="white"/>
<path d="M112.359 42.0203C112.58 43.9453 114.454 45.1922 117.012 45.1922C119.459 45.1922 121.223 43.9453 121.223 42.2172C121.223 40.7297 120.164 39.8109 117.629 39.1984L115.115 38.5859C111.544 37.7328 109.89 36.0703 109.89 33.3797C109.89 30.0547 112.822 27.7578 116.967 27.7578C121.068 27.7578 123.891 30.0547 124.001 33.3797H121.068C120.892 31.4547 119.283 30.2953 116.945 30.2953C114.608 30.2953 112.999 31.4766 112.999 33.1828C112.999 34.5391 114.035 35.3484 116.527 35.9609L118.665 36.4859C122.656 37.4266 124.31 39.0234 124.31 41.8453C124.31 45.4547 121.399 47.7297 116.791 47.7297C112.47 47.7297 109.559 45.5203 109.383 42.0203H112.359Z" fill="white"/>
<path d="M130.595 30.0098V33.3348H133.285V35.6316H130.595V43.3973C130.595 44.6004 131.124 45.1691 132.315 45.1691C132.601 45.1691 133.086 45.1254 133.263 45.1035V47.3785C132.932 47.466 132.293 47.5098 131.653 47.5098C128.787 47.5098 127.662 46.4379 127.662 43.7035V35.6316H125.59V33.3348H127.662V30.0098H130.595V30.0098Z" fill="white"/>
<path d="M134.848 40.3809C134.848 35.9621 137.471 33.1621 141.572 33.1621C145.695 33.1621 148.297 35.9402 148.297 40.3809C148.297 44.8215 145.695 47.5996 141.572 47.5996C137.449 47.5777 134.848 44.8215 134.848 40.3809ZM145.343 40.3809C145.343 37.3402 143.932 35.5465 141.572 35.5465C139.213 35.5465 137.802 37.3621 137.802 40.3809C137.802 43.4215 139.213 45.2152 141.572 45.2152C143.932 45.1934 145.343 43.4215 145.343 40.3809Z" fill="white"/>
<path d="M150.703 33.3363H153.481V35.7426H153.547C153.988 34.1457 155.289 33.2051 156.965 33.2051C157.384 33.2051 157.737 33.2488 157.957 33.3145V36.0269C157.737 35.9394 157.207 35.8519 156.656 35.8519C154.782 35.8519 153.614 37.1207 153.614 39.0895V47.4457H150.703V33.3363V33.3363Z" fill="white"/>
<path d="M171.378 43.2687C170.981 45.8281 168.468 47.5781 165.271 47.5781C161.147 47.5781 158.59 44.8437 158.59 40.425C158.59 36.0062 161.17 33.1406 165.16 33.1406C169.085 33.1406 171.554 35.8094 171.554 40.075V41.0594H161.544V41.2344C161.544 43.6406 163.066 45.2156 165.359 45.2156C166.968 45.2156 168.247 44.45 168.644 43.2469H171.378V43.2687ZM161.544 39.0687H168.644C168.578 36.925 167.189 35.5031 165.16 35.5031C163.154 35.5031 161.699 36.9469 161.544 39.0687Z" fill="white"/>
<path d="M55.5117 18.2195C55.5117 15.2008 57.1213 13.3633 59.723 13.3633C61.7735 13.3633 63.383 14.6977 63.6035 16.5789H62.1483C61.8837 15.4414 60.9356 14.6977 59.7009 14.6977C58.0252 14.6977 56.9669 16.0539 56.9669 18.2195C56.9669 20.3852 58.0252 21.7414 59.7009 21.7414C60.9356 21.7414 61.8837 21.0852 62.1263 20.0352H63.5814C63.3169 21.8727 61.7955 23.0977 59.7009 23.0977C57.1213 23.0758 55.5117 21.2164 55.5117 18.2195Z" fill="white"/>
<path d="M65.1953 19.3344C65.1953 17.0812 66.4741 15.7031 68.5246 15.7031C70.5751 15.7031 71.8539 17.0812 71.8539 19.3344C71.8539 21.6094 70.5972 22.9656 68.5246 22.9656C66.4521 22.9875 65.1953 21.6094 65.1953 19.3344ZM70.4208 19.3344C70.4208 17.825 69.7373 16.9281 68.5246 16.9281C67.312 16.9281 66.6285 17.825 66.6285 19.3344C66.6285 20.8656 67.312 21.7406 68.5246 21.7406C69.7373 21.7625 70.4208 20.8656 70.4208 19.3344Z" fill="white"/>
<path d="M73.7227 15.8344H75.0676V16.95H75.1779C75.5306 16.1625 76.2141 15.7031 77.2945 15.7031C78.8599 15.7031 79.7419 16.6437 79.7419 18.3062V22.8344H78.3528V18.6562C78.3528 17.5406 77.8678 16.9719 76.8315 16.9719C75.7952 16.9719 75.1558 17.65 75.1558 18.7437V22.8344H73.7668V15.8344H73.7227Z" fill="white"/>
<path d="M84.4403 15.7031C86.0277 15.7031 87.064 16.425 87.1963 17.6719H85.8514C85.7411 17.1687 85.234 16.8406 84.4403 16.8406C83.6686 16.8406 83.0733 17.2125 83.0733 17.7594C83.0733 18.175 83.426 18.4375 84.1977 18.6125L85.3663 18.875C86.7113 19.1812 87.3286 19.75 87.3286 20.7781C87.3286 22.0906 86.0939 22.9656 84.3962 22.9656C82.7205 22.9656 81.6181 22.2219 81.5078 20.975H82.8969C83.0732 21.5219 83.5804 21.85 84.4403 21.85C85.3001 21.85 85.9175 21.4562 85.9175 20.9094C85.9175 20.4937 85.5868 20.2312 84.8812 20.0562L83.6465 19.7719C82.3016 19.4656 81.6842 18.8531 81.6842 17.825C81.7062 16.5781 82.8528 15.7031 84.4403 15.7031Z" fill="white"/>
<path d="M89.0859 14.6762L90.7175 12.4668H92.3491L90.5191 14.6762H89.0859ZM89.2403 15.8355H90.6293V22.8355H89.2403V15.8355Z" fill="white"/>
<path d="M92.7958 23.5578H94.229C94.3392 24.0609 94.9345 24.3891 95.8826 24.3891C97.0512 24.3891 97.7347 23.8422 97.7347 22.9234V21.5672H97.6244C97.2055 22.3328 96.4118 22.7484 95.4416 22.7484C93.6337 22.7484 92.5312 21.3703 92.5312 19.2703C92.5312 17.1266 93.6557 15.7266 95.4637 15.7266C96.4338 15.7266 97.2937 16.2078 97.6685 16.9516H97.7788V15.8359H99.1237V22.9016C99.1237 24.4984 97.867 25.5266 95.8606 25.5266C94.0746 25.5266 92.9502 24.7391 92.7958 23.5578ZM97.7347 19.2703C97.7347 17.8703 97.0071 16.9734 95.8165 16.9734C94.6258 16.9734 93.9423 17.8703 93.9423 19.2703C93.9423 20.6703 94.6258 21.5672 95.8165 21.5672C97.0071 21.5453 97.7347 20.6703 97.7347 19.2703Z" fill="white"/>
<path d="M107.263 22.834H105.918V21.7402H105.83C105.477 22.5277 104.771 22.9871 103.691 22.9871C102.126 22.9871 101.266 22.0465 101.266 20.4059V15.834H102.655V20.0121C102.655 21.1496 103.118 21.6746 104.132 21.6746C105.256 21.6746 105.874 21.0184 105.874 19.9027V15.834H107.263V22.834V22.834Z" fill="white"/>
<path d="M115.461 20.9547C115.152 22.2016 114.006 22.9891 112.396 22.9891C110.368 22.9891 109.133 21.6109 109.133 19.3797C109.133 17.1484 110.39 15.7266 112.396 15.7266C114.358 15.7266 115.549 17.0609 115.549 19.2484V19.7297H110.566V19.8172C110.61 21.0422 111.338 21.8297 112.44 21.8297C113.278 21.8297 113.851 21.5234 114.116 20.9766H115.461V20.9547ZM110.566 18.7016H114.138C114.116 17.6078 113.432 16.8859 112.396 16.8859C111.36 16.8859 110.632 17.6078 110.566 18.7016Z" fill="white"/>
<path d="M117.469 13.125H118.858V22.8594H117.469V13.125Z" fill="white"/>
<path d="M120.797 19.3344C120.797 17.0812 122.076 15.7031 124.126 15.7031C126.177 15.7031 127.456 17.0812 127.456 19.3344C127.456 21.6094 126.199 22.9656 124.126 22.9656C122.076 22.9875 120.797 21.6094 120.797 19.3344ZM126.022 19.3344C126.022 17.825 125.339 16.9281 124.126 16.9281C122.914 16.9281 122.23 17.825 122.23 19.3344C122.23 20.8656 122.914 21.7406 124.126 21.7406C125.339 21.7625 126.022 20.8656 126.022 19.3344Z" fill="white"/>
<path d="M139.117 20.9547C138.808 22.2016 137.662 22.9891 136.052 22.9891C134.024 22.9891 132.789 21.6109 132.789 19.3797C132.789 17.1484 134.046 15.7266 136.052 15.7266C138.015 15.7266 139.205 17.0609 139.205 19.2484V19.7297H134.222V19.8172C134.266 21.0422 134.994 21.8297 136.096 21.8297C136.934 21.8297 137.507 21.5234 137.772 20.9766H139.117V20.9547ZM134.222 18.7016H137.794C137.772 17.6078 137.088 16.8859 136.052 16.8859C135.016 16.8859 134.288 17.6078 134.222 18.7016Z" fill="white"/>
<path d="M141.078 15.8344H142.423V16.95H142.533C142.886 16.1625 143.57 15.7031 144.65 15.7031C146.215 15.7031 147.097 16.6437 147.097 18.3062V22.8344H145.708V18.6562C145.708 17.5406 145.223 16.9719 144.187 16.9719C143.151 16.9719 142.511 17.65 142.511 18.7437V22.8344H141.122V15.8344H141.078Z" fill="white"/>
<path d="M159.008 20.9547C158.699 22.2016 157.552 22.9891 155.943 22.9891C153.914 22.9891 152.68 21.6109 152.68 19.3797C152.68 17.1484 153.936 15.7266 155.943 15.7266C157.905 15.7266 159.096 17.0609 159.096 19.2484V19.7297H154.113V19.8172C154.157 21.0422 154.885 21.8297 155.987 21.8297C156.825 21.8297 157.398 21.5234 157.663 20.9766H159.008V20.9547ZM154.113 18.7016H157.685C157.663 17.6078 156.979 16.8859 155.943 16.8859C154.907 16.8859 154.201 17.6078 154.113 18.7016Z" fill="white"/>
<path d="M161.035 13.125H162.424V22.8594H161.035V13.125Z" fill="white"/>
</svg>
