<svg width="481" height="415" viewBox="0 0 481 415" fill="none" xmlns="http://www.w3.org/2000/svg">
<path d="M258.065 381.988C258.065 381.988 495.28 384.122 476.412 264.95C457.543 145.779 501.717 118.563 414.42 78.2577C327.123 37.9372 347.929 -9.18486 219.804 10.7273C170.733 18.3536 118.663 45.2894 78.8152 56.3553C14.6215 74.1825 -1.13833 114.283 6.88756 169.096C19.8954 257.934 58.019 248.653 79.8351 306.657C101.651 364.661 187.673 375.39 187.673 375.39L258.065 381.988Z" fill="white"/>
<path d="M197.648 162.729C196.599 162.099 196.254 160.741 196.885 159.686L210.454 137.033C211.085 135.985 212.443 135.639 213.498 136.271C214.547 136.901 214.892 138.26 214.261 139.314L200.692 161.967C200.061 163.015 198.697 163.36 197.648 162.729Z" fill="#FFB29E"/>
<path d="M233.462 95.2964L238.493 99.2835L234.286 105.686L228.786 101.009L233.462 95.2964Z" fill="#FCD0B9"/>
<path d="M209.922 137.011L214.759 140.851L219.276 135.873L213.566 130.501L209.922 137.011Z" fill="#FCD0B9"/>
<path d="M225.658 118.394C232.159 106.875 235.649 96.5329 233.455 95.2947C231.261 94.0564 224.212 102.391 217.712 113.91C211.211 125.429 207.72 135.771 209.915 137.01C212.109 138.248 219.157 129.914 225.658 118.394Z" fill="#FCD0B9"/>
<path d="M230.502 122.232C237.002 110.713 240.493 100.371 238.299 99.1325C236.105 97.8942 229.056 106.229 222.555 117.748C216.055 129.267 212.564 139.609 214.758 140.848C216.953 142.086 224.001 133.751 230.502 122.232Z" fill="#FFB29E"/>
<path d="M230.229 121.345C236.33 110.534 239.474 100.753 237.251 99.499C235.028 98.2445 228.28 105.991 222.179 116.802C216.078 127.613 212.935 137.394 215.158 138.648C217.381 139.903 224.129 132.156 230.229 121.345Z" fill="#F9F9F9"/>
<mask id="mask0" mask-type="alpha" maskUnits="userSpaceOnUse" x="214" y="99" width="24" height="40">
<path d="M230.229 121.345C236.33 110.534 239.474 100.753 237.251 99.499C235.028 98.2445 228.28 105.991 222.179 116.802C216.078 127.613 212.935 137.394 215.158 138.648C217.381 139.903 224.129 132.156 230.229 121.345Z" fill="#F9F9F9"/>
</mask>
<g mask="url(#mask0)">
<path opacity="0.1" d="M230.345 119.052C235.96 107.018 237.584 95.8964 233.972 94.2115C230.361 92.5266 222.882 100.916 217.267 112.951C211.653 124.985 210.029 136.106 213.641 137.791C217.252 139.476 224.731 131.086 230.345 119.052Z" fill="black"/>
</g>
<path d="M230.984 112.116C230.984 112.116 229.42 124.576 220.466 130.983L218.856 132.247C218.85 132.246 226.138 124.96 230.984 112.116Z" fill="#F9F9F9"/>
<path d="M383.16 230.009H272.508C268.572 230.009 265.383 226.819 265.383 222.883V190.075C265.383 186.139 268.572 182.949 272.508 182.949H383.16C387.097 182.949 390.286 186.139 390.286 190.075V222.883C390.286 226.819 387.097 230.009 383.16 230.009Z" fill="#FCD8C9"/>
<path d="M390.285 142.701H265.375V218.968H390.285V142.701Z" fill="black"/>
<path d="M385.121 148.047H270.547V213.796H385.121V148.047Z" fill="#F9F9F9"/>
<path d="M340.574 230.008H315.094V241.056H340.574V230.008Z" fill="#FFB29E"/>
<path d="M348.2 241.057H307.457V243.785H348.2V241.057Z" fill="#FFB29E"/>
<path d="M380.07 152.68H275.734V193.605H380.07V152.68Z" fill="#F2F2F0"/>
<path d="M321.51 197.562H275.734V213.796H321.51V197.562Z" fill="#F2F2F0"/>
<path d="M379.322 199.07H326.617C326.205 199.07 325.863 198.735 325.863 198.316C325.863 197.904 326.198 197.562 326.617 197.562H379.322C379.734 197.562 380.076 197.897 380.076 198.316C380.069 198.735 379.734 199.07 379.322 199.07Z" fill="#F2F2F0"/>
<path d="M379.322 203.252H326.617C326.205 203.252 325.863 202.917 325.863 202.498C325.863 202.079 326.198 201.744 326.617 201.744H379.322C379.734 201.744 380.076 202.079 380.076 202.498C380.069 202.917 379.734 203.252 379.322 203.252Z" fill="#F2F2F0"/>
<path d="M379.322 207.431H326.617C326.205 207.431 325.863 207.096 325.863 206.678C325.863 206.259 326.198 205.924 326.617 205.924H379.322C379.734 205.924 380.076 206.259 380.076 206.678C380.069 207.096 379.734 207.431 379.322 207.431Z" fill="#F2F2F0"/>
<path d="M379.322 211.611H326.617C326.205 211.611 325.863 211.276 325.863 210.857C325.863 210.438 326.198 210.104 326.617 210.104H379.322C379.734 210.104 380.076 210.438 380.076 210.857C380.069 211.276 379.734 211.611 379.322 211.611Z" fill="#F2F2F0"/>
<path d="M371.283 164.511C373.372 164.511 375.065 162.817 375.065 160.728C375.065 158.639 373.372 156.945 371.283 156.945C369.194 156.945 367.5 158.639 367.5 160.728C367.5 162.817 369.194 164.511 371.283 164.511Z" fill="#F9F9F9"/>
<path d="M373.008 243.861H384.593C384.593 243.861 384.118 239.346 378.8 239.346C373.482 239.353 373.008 243.861 373.008 243.861Z" fill="#FFB29E"/>
<path d="M464.764 251.63H206.75C206.75 247.303 210.26 243.793 214.587 243.793H456.919C461.253 243.793 464.764 247.303 464.764 251.63Z" fill="black"/>
<path d="M236.551 248.782L219.738 411.526C219.738 411.526 219.801 413.368 221.637 413.78C223.479 414.199 224.191 411.7 224.191 411.7L244.863 248.775H236.551V248.782Z" fill="black"/>
<path d="M435.425 248.782L452.238 411.526C452.238 411.526 452.175 413.368 450.339 413.78C448.497 414.199 447.785 411.7 447.785 411.7L427.113 248.775H435.425V248.782Z" fill="black"/>
<path d="M386.038 166.836C389.619 166.836 392.522 163.933 392.522 160.353C392.522 156.772 389.619 153.869 386.038 153.869C382.457 153.869 379.555 156.772 379.555 160.353C379.555 163.933 382.457 166.836 386.038 166.836Z" fill="#FCD8C9"/>
<path d="M428.123 240.73L424.905 239.369L451.195 177.159L416.663 140.261L405.971 147.924L403.934 145.083L417.117 135.641L455.292 176.433L428.123 240.73Z" fill="black"/>
<path d="M416.893 142.283C419.286 142.283 421.226 140.343 421.226 137.949C421.226 135.556 419.286 133.615 416.893 133.615C414.499 133.615 412.559 135.556 412.559 137.949C412.559 140.343 414.499 142.283 416.893 142.283Z" fill="#FFB29E"/>
<path d="M453.24 181.303C455.634 181.303 457.574 179.362 457.574 176.969C457.574 174.575 455.634 172.635 453.24 172.635C450.847 172.635 448.906 174.575 448.906 176.969C448.906 179.362 450.847 181.303 453.24 181.303Z" fill="#FFB29E"/>
<path d="M407.165 144.914C407.165 144.914 405.664 141.425 404.059 141.069C402.454 140.713 399.781 142.869 394.435 142.995C389.089 143.121 378.579 149.179 376.262 151.23L375.641 151.768L384.637 161.838L407.165 144.914Z" fill="#FFB29E"/>
<path d="M406.897 144.488C406.897 144.488 409.849 146.882 409.759 148.522C409.668 150.162 406.869 152.151 405.299 157.26C403.729 162.368 395.054 170.848 392.451 172.523L391.767 172.977L384.516 161.587L406.897 144.488Z" fill="#FFB29E"/>
<path d="M375.641 151.76L391.776 172.983L396.438 152.486L375.641 151.76Z" fill="#FFB29E"/>
<path d="M404.95 141.564C404.95 141.564 407.972 144.6 409.486 147.448L407.49 148.641L403.645 145.284L404.95 141.564Z" fill="#FFB29E"/>
<path d="M440.412 238.621H401.211V243.786H440.412V238.621Z" fill="#FFB29E"/>
<path d="M335.501 79.4687C351.05 79.4687 363.654 66.864 363.654 51.3154C363.654 35.7668 351.05 23.1621 335.501 23.1621C319.952 23.1621 307.348 35.7668 307.348 51.3154C307.348 66.864 319.952 79.4687 335.501 79.4687Z" fill="#FFB29E"/>
<path d="M335.5 76.7254C349.534 76.7254 360.911 65.3487 360.911 51.3148C360.911 37.281 349.534 25.9043 335.5 25.9043C321.467 25.9043 310.09 37.281 310.09 51.3148C310.09 65.3487 321.467 76.7254 335.5 76.7254Z" fill="white"/>
<path d="M345.647 42.9753L336.323 52.2992C335.8 52.8227 334.955 52.8227 334.432 52.2992C333.908 51.7758 333.908 50.9313 334.432 50.4079L343.756 41.084C344.279 40.5606 345.123 40.5606 345.647 41.084C346.17 41.6074 346.17 42.4588 345.647 42.9753Z" fill="#FFB29E"/>
<path d="M352.655 61.0087L334.838 52.5571C334.168 52.2431 333.889 51.4405 334.203 50.7775C334.517 50.1075 335.32 49.8283 335.983 50.1424L353.8 58.594C354.47 58.908 354.749 59.7106 354.435 60.3736C354.121 61.0436 353.325 61.3297 352.655 61.0087Z" fill="#FFB29E"/>
<path d="M251.08 228.969C251.08 228.969 243.613 222.171 243.131 214.864C242.65 207.557 246.949 213.189 247.123 209.783C247.298 206.378 248.066 197.577 250.131 198.115C252.197 198.652 251.66 198.429 253.998 194.834C256.336 191.233 258.087 193.299 256.503 197.689C254.919 202.079 253.216 206.154 255.456 206.259C257.697 206.364 262.072 206.524 258.695 209.797C255.317 213.071 253.216 218.04 255.624 219.031C258.032 220.022 250.508 226.652 251.08 228.969Z" fill="#FCD8C9"/>
<path d="M250.305 227.18C250.271 227.013 247.039 210.466 252.148 200.234L252.734 200.528C247.723 210.563 250.913 226.887 250.948 227.055L250.305 227.18Z" fill="#FFB29E"/>
<path d="M251.08 228.975C251.08 228.975 248.805 221.529 251.366 216.497C253.92 211.465 254.555 216.888 256.014 214.703C257.473 212.519 261.444 206.985 262.602 208.15C263.761 209.316 263.496 208.96 266.462 207.494C269.428 206.028 269.777 208.087 266.999 210.376C264.221 212.666 261.486 214.689 262.93 215.646C264.375 216.602 267.208 218.423 263.684 219.261C260.16 220.098 256.81 222.569 258.01 224.174C259.21 225.779 251.617 227.21 251.08 228.975Z" fill="#FFB29E"/>
<path d="M251.199 227.461C251.374 226.959 255.624 215.074 263.057 210.293L263.412 210.844C256.161 215.513 251.862 227.559 251.813 227.685L251.199 227.461Z" fill="#FCD8C9"/>
<path d="M247.536 231.266C247.536 231.266 251.005 231.663 248.939 220.337C247.927 214.781 246.168 218.766 245.108 216.359C244.047 213.958 241.067 207.83 239.734 208.779C238.394 209.735 238.715 209.428 236.042 207.481C233.369 205.534 232.671 207.502 235.023 210.231C237.375 212.96 239.72 215.423 238.136 216.114C236.551 216.805 233.446 218.124 236.775 219.548C240.104 220.972 242.986 223.98 241.527 225.354C240.069 226.729 247.313 229.437 247.536 231.266Z" fill="#FCD8C9"/>
<path d="M247.677 229.752C247.586 229.228 245.423 216.792 238.911 210.811L238.465 211.292C244.816 217.127 247.007 229.731 247.028 229.856L247.677 229.752Z" fill="#FFB29E"/>
<path d="M249.714 227.363H240.55C240.55 227.363 238.784 243.792 248.771 243.792C258.758 243.792 249.707 243.792 249.707 243.792V227.363H249.714Z" fill="#FFB29E"/>
<path d="M249.51 227.363H258.674C258.674 227.363 260.44 243.792 250.453 243.792C240.466 243.792 249.517 243.792 249.517 243.792V227.363H249.51Z" fill="#FFB29E"/>
<path d="M22.8833 370.592L18.8281 378.323L24.3969 382.673L30.7332 374.718C30.7332 374.718 26.8469 369.445 25.629 369.917C24.404 370.388 22.8833 370.592 22.8833 370.592Z" fill="#FCD8C9"/>
<path d="M123.099 393.389L122.395 403.302L131.329 402.957L133.075 394.417C133.075 394.417 128.139 390.749 123.099 393.389Z" fill="#FCD8C9"/>
<path d="M20.2849 375.148C20.2849 375.148 17.8208 373.93 14.9062 374.402C11.9915 374.873 8.53474 378.414 9.73158 382.012C10.9284 385.61 21.6014 404.851 21.6014 404.851C21.6014 404.851 26.1283 409.828 28.5712 407.969C31.0212 406.118 33.429 399.76 26.8534 386.525C21.2846 375.303 20.2849 375.148 20.2849 375.148Z" fill="black"/>
<path d="M121.98 402.583C121.98 402.583 118.777 407.406 120.953 410.314C123.128 413.221 121.882 413.503 125.36 413.953C128.838 414.404 149.304 412.081 152.183 411.855C155.062 411.63 160.061 408.342 157.435 404.921C154.816 401.506 143.657 400.218 135.315 401.126C126.972 402.041 121.98 402.583 121.98 402.583Z" fill="black"/>
<path d="M28.8307 377.098C28.8307 377.098 84.4626 323.937 95.7903 304.879C110.152 280.717 126.549 231.794 127.739 220.044C129.098 206.583 130.506 184.766 130.506 184.766C130.506 184.766 124.676 192.221 101.31 176.521C101.31 176.521 60.6666 192.299 68.2348 228.992C73.0715 252.436 69.6288 267.108 67.0943 279.076L22.5508 371.226L28.8307 377.098Z" fill="black"/>
<path d="M132.64 396.705L122.798 397.303C122.798 397.303 123.882 386.553 119.334 308.631C116.687 263.257 62.8295 252.218 79.1488 203.457C84.084 188.708 73.9883 199.381 73.9883 199.381C108.746 230.034 129.782 207.653 131.324 213.328C137.998 237.828 154.557 270.882 153.557 311.99C153.529 313.151 153.135 314.278 153.057 315.439C151.191 344.438 137.4 375.077 132.64 396.705Z" fill="black"/>
<path d="M167.174 133.633C172.75 134.069 178.235 131.992 182.086 127.923C187.232 122.481 193.836 114.328 195.997 106.443C199.714 92.8698 199.292 89.7369 201.721 90.807C204.15 91.8771 208.606 92.4896 209.951 88.2725C211.288 84.0554 211.549 75.2833 198.996 68.8485C186.443 62.4138 171.934 60.8438 160.465 67.9967C148.996 75.1495 145.469 83.4218 134.184 88.1529C122.898 92.8839 108.177 82.929 96.2088 99.3679C84.2404 115.807 96.4693 129.704 100.405 132.527C104.34 135.351 124.053 138.8 129.249 134.492C132.945 131.422 154.917 132.668 167.174 133.633Z" fill="black"/>
<path d="M203.853 86.3646C205.866 89.5327 203.1 95.186 201.347 98.1218C196.39 106.45 186.097 121.953 180.571 117.511C173.115 111.512 175.157 109.802 173.742 108.992C172.327 108.182 171.707 109.302 171.503 110.266C171.193 111.702 170.595 113.631 170.912 117.37C171.158 120.306 171.292 122.91 171.292 122.91C171.292 122.91 155.184 118.531 153.888 112.005C152.586 105.479 158.394 107.112 159.528 106.204C160.661 105.296 162.555 104.634 164.047 102.325C167.539 96.925 167.715 94.5876 171.869 90.2016C172.784 89.2371 170.679 85.0129 173.826 81.9152C175.875 79.8947 177.086 79.6201 177.952 79.7468C178.874 79.8806 179.782 80.7043 179.494 81.8941C179.339 82.5277 179.93 83.3162 180.423 83.3937C180.536 83.4148 180.634 83.3796 180.655 83.3725C191.005 80.0214 195.334 79.4723 200.234 82.6967C200.868 83.1121 201.396 83.6542 201.959 84.161C202.917 85.0411 203.839 86.3506 203.853 86.3646Z" fill="#FCD8C9"/>
<path d="M180.335 178.647L199.168 159.561C199.168 159.561 208.496 159.934 210.742 156.414C212.988 152.894 215.67 139.659 210.27 141.475C204.863 143.291 200.54 146.459 199.583 149.895C198.625 153.331 174.287 161.314 174.287 161.314C174.287 161.314 171.436 173.107 174.379 175.388C177.329 177.669 180.335 178.647 180.335 178.647Z" fill="#FCD8C9"/>
<path d="M148.262 112.491C148.262 112.491 156.069 106.668 157.865 106.872C159.428 107.048 172.895 113.096 174.444 123.677C175 127.493 175.05 127.873 174.846 139.279C174.606 152.578 165.123 165.651 181.21 158.907L187.94 170.946C187.94 170.946 176.824 188.532 158.259 183.322C139.694 178.113 145.96 154.394 145.938 151.522C145.917 148.642 143.517 121.544 148.262 112.491Z" fill="#FFB29E"/>
<path d="M170.254 122.671C169.754 119.355 170.634 115.553 169.958 114.892C166.663 111.653 161.01 105.415 151.808 104.831C145.169 104.409 129.688 109.893 118.691 124.586C107.744 139.209 84.1236 174.726 71.3667 184.498C71.2541 184.59 71.1978 184.724 71.2259 184.864C71.6343 187.026 76.2738 203.796 123.246 223.128L136.13 228.514C136.13 228.514 139.756 200.451 148.274 184.928C156.511 169.911 170.514 148.706 171.211 147.03C172.373 144.249 172.704 142.215 172.711 142.151L170.254 122.671Z" fill="#FFB29E"/>
</svg>
