<svg width="456" height="507" viewBox="0 0 456 507" fill="none" xmlns="http://www.w3.org/2000/svg">
<path d="M206.134 144C206.134 144 -13.0809 125.065 0.616133 222.623C14.3131 320.18 -19.0914 352.696 57.9904 387.663C135.072 422.642 125.133 471.339 240.386 458.238C355.639 445.136 464.422 433.807 455.159 361.107C445.895 288.407 381.673 257.514 363.695 209.722C345.709 161.918 282.501 150.463 282.501 150.463L206.134 144Z" fill="white"/>
<path d="M119.731 236.565C119.731 236.565 99.0592 217.192 106.598 193.772C114.137 170.352 104.124 170.352 104.941 130.957C105.758 91.5623 85.9215 78.9909 119.727 55.524C153.532 32.0571 152.316 -10.0533 181.005 2.20242C209.695 14.4581 222.545 -3.98114 237.075 21.9972C251.606 47.9756 269.205 80.6668 247.414 95.7543C225.623 110.842 230.65 115.869 228.974 135.149C227.298 154.428 218.26 178.968 206.009 184.599C193.748 190.23 183.15 261.708 119.731 236.565Z" fill="#FCD8C9"/>
<path d="M111.964 227.382C111.964 227.382 97.949 229.327 85.099 214.532C72.2491 199.737 35.2546 202.462 34.4793 182.602C33.704 162.742 50.4442 166.247 46.5493 140.552C42.6544 114.857 52.7793 79.4221 63.2941 83.317C73.8089 87.2119 74.8999 93.4419 96.157 93.4419C117.414 93.4419 129.094 102.007 127.149 110.572C125.204 119.137 136.062 133.932 146.011 143.277C155.959 152.622 161.799 156.127 157.519 167.027C153.234 177.927 165.36 186.107 151.317 190.777C137.274 195.447 134.391 206.742 129.02 213.362C123.644 219.982 127.924 225.042 111.964 227.382Z" fill="#FCD8C9"/>
<path d="M197.58 210.146C197.58 210.146 217.291 242.712 247.87 229.75C278.449 216.789 250.952 217.731 282.242 212.991C313.531 208.252 329.83 208.252 329.742 189.288C329.653 170.324 312.584 158.946 325.861 136.189C339.138 113.432 315.429 77.3989 292.673 93.5216C269.916 109.644 265.176 101.103 230.094 112.481C195.013 123.859 193.244 135.237 188.439 157.994C183.634 180.751 162.224 207.3 197.58 210.146Z" fill="#FCD8C9"/>
<path d="M137.06 493.005C127.613 491.863 119.266 486.315 114.591 478.024C102.702 456.939 85.1962 409.634 101.848 329.823C125.552 216.202 102.085 125.645 102.085 125.645L102.558 122.957C102.558 122.957 143.559 227.46 127.293 301.064C115.808 353.039 140.565 469.524 168.619 486.041C188.799 497.93 156.678 495.377 137.06 493.005Z" fill="#FFB29E"/>
<path d="M129.892 285.193C129.892 285.193 150.755 205.898 185.837 196.418C220.919 186.934 272.597 161.81 280.182 149.48L278.01 145.678C278.01 145.678 239.882 175.556 197.689 181.247C155.495 186.939 125.078 219.342 125.078 225.502C125.078 231.667 129.892 285.193 129.892 285.193Z" fill="#FFB29E"/>
<path d="M119.234 213.923C119.234 213.923 130.845 153.968 149.572 122.266C168.299 90.5632 169.014 75.6289 169.014 75.6289H170.829C170.829 75.6289 170.987 88.9848 161.187 108.738C151.387 128.491 130.845 192.021 131.792 206.718C132.739 221.416 132.265 222.837 132.265 222.837L126.1 234.846L119.234 213.923Z" fill="#FFB29E"/>
<path d="M132.031 188.708C132.031 188.708 148.219 166.662 162.169 157.772C176.124 148.882 190.32 149.313 190.32 149.313V146.746C190.32 146.746 173.636 149.234 166.881 151.012C160.127 152.79 135.021 174.837 135.021 174.837L132.031 188.708Z" fill="#FFB29E"/>
<path d="M111.049 174.849C111.049 174.849 100.251 160.231 95.5156 155.881C90.7804 151.531 89.0117 149.846 89.0117 149.846L89.332 148.945C89.332 148.945 108.593 165.416 111.035 171.349L111.049 174.849Z" fill="#FFB29E"/>
<path d="M107.633 506.511C107.633 506.511 76.2417 503.299 61.4606 485.839C46.6794 468.379 67.9459 474.535 62.0641 465.664C56.1823 456.792 41.7632 433.242 47.9422 430.763C54.1257 428.284 52.3756 428.711 51.5632 415.332C50.7508 401.952 58.9955 403.874 63.1689 417.852C67.3424 431.83 70.6291 445.223 76.4599 441.324C82.2906 437.424 93.5714 429.713 91.1574 444.197C88.7434 458.681 92.7126 475.073 100.591 473.101C108.469 471.123 101.881 501.753 107.633 506.511Z" fill="#FCD8C9"/>
<path d="M102.363 503.457C101.974 503.105 63.1267 467.54 56.957 432.337L58.9764 431.984C65.0254 466.491 103.357 501.587 103.742 501.939L102.363 503.457Z" fill="#FFB29E"/>
<path d="M107.642 506.524C107.642 506.524 88.1026 492.036 85.1779 474.65C82.2533 457.26 93.9241 469.711 93.5202 461.517C93.1163 453.319 92.8285 432.034 97.8979 432.828C102.972 433.617 101.644 433.213 106.37 424.026C111.096 414.839 115.803 419.356 113.069 430.265C110.335 441.175 107.238 451.341 112.642 451.053C118.045 450.766 128.551 450.092 121.253 458.741C113.956 467.39 110.13 479.817 116.128 481.609C122.126 483.396 105.706 501.102 107.642 506.524Z" fill="#FCD8C9"/>
<path d="M105.126 502.494C104.634 500.902 93.2372 463.169 103.028 437.33L104.945 438.059C95.4051 463.234 106.965 501.51 107.085 501.891L105.126 502.494Z" fill="#FFB29E"/>
<path d="M200.297 449.926C200.297 449.926 220.003 421.227 235.713 410.545C251.423 399.863 273.608 378.982 287.071 384.952C306.281 393.475 353.145 476.818 354.477 479.219C355.81 481.619 339.167 474.827 339.167 474.827C339.167 474.827 324.209 471.22 305.701 450.58C293.965 437.493 285.242 420.642 283.733 423.037C279.142 430.326 266.157 456.857 237.045 466.708C227.58 469.911 206.155 458.008 206.155 458.008L200.297 449.926Z" fill="black"/>
<path d="M400.375 488.669C400.375 488.669 400.811 490.726 404.897 490.726C408.986 490.726 408.75 489.245 408.75 487.764C408.75 486.283 409.697 466.706 409.302 465.996C408.908 465.286 406.772 462.835 404.089 464.497C401.406 466.159 400.375 474.928 400.375 478.8C400.375 482.671 400.375 488.669 400.375 488.669Z" fill="black"/>
<path d="M395.712 477.523L400.373 478.791V488.67H394.918L395.118 477.96L395.712 477.523Z" fill="#FCD8C9"/>
<path d="M210.807 448.324C210.807 448.324 280.502 453.514 326.962 461.926C373.422 470.338 395.71 477.524 395.71 477.524V488.624C395.71 488.624 329.771 488.87 281.384 484.58C273.794 483.907 266.157 484.237 258.655 485.565C252.045 486.734 246.014 488.489 241.265 490.481C233.619 493.689 151.539 516.32 149.645 451.128C149.645 451.128 150.592 438.208 162.685 439.986C174.773 441.764 202.864 439.819 202.864 439.819L210.807 448.324Z" fill="black"/>
<path d="M290.228 324.168L287.688 322.701L273.542 347.201L276.083 348.667L290.228 324.168Z" fill="black"/>
<path d="M249.207 370.3C249.207 370.3 260.585 358.211 266.75 353.708C272.915 349.205 271.411 344.86 275.204 343.198C278.997 341.541 280.417 340.273 281.685 338.064C283.217 335.38 285.714 334.508 285.714 340.199C285.714 345.89 284.577 351.443 277.261 354.739C270.938 357.584 260.989 377.263 260.989 377.263C260.989 377.263 252.29 381.441 249.207 370.3Z" fill="#FCD8C9"/>
<path d="M211.406 358.926C217.079 355.593 220.927 349.962 221.833 343.569C223.04 335.013 223.778 322.939 220.421 314.09C214.646 298.868 212.079 296.213 215.157 295.591C218.235 294.969 222.952 292.545 221.336 287.699C219.72 282.848 213.922 274.45 197.4 276.836C180.883 279.227 165.819 287.485 159.705 301.89C153.591 316.296 155.893 326.416 148.285 338.43C140.676 350.444 124.725 352.775 124.525 376.223C124.326 399.671 140.592 402.698 146.335 402.703C152.077 402.707 173.437 392.717 175.465 385.192C176.918 379.821 198.941 366.247 211.406 358.926Z" fill="black"/>
<path d="M214.393 289.992C218.409 291.608 219.602 298.766 219.936 302.698C220.874 313.831 221.631 335.278 213.465 334.819C202.449 334.201 203.215 331.225 201.348 331.416C199.487 331.606 199.649 333.068 200.104 334.108C200.777 335.659 203.651 337.827 206.13 341.378C208.084 344.182 209.667 346.67 209.667 346.67C209.667 346.67 190.36 352.808 184.761 347.562C179.163 342.311 185.704 339.948 186.154 338.342C186.609 336.736 187.941 334.837 187.793 331.671C187.44 324.262 186.043 321.955 186.99 315.056C187.199 313.534 182.394 310.99 183.262 305.971C183.828 302.703 184.78 301.631 185.676 301.166C186.628 300.674 188.034 300.837 188.563 302.151C188.842 302.842 189.928 303.191 190.439 302.935C190.56 302.875 190.625 302.787 190.648 302.759C198.103 292.676 201.794 289.25 208.553 288.985C209.426 288.953 210.289 289.101 211.153 289.203C212.62 289.375 214.365 289.983 214.393 289.992Z" fill="#FCD8C9"/>
<path d="M193.806 335.971C193.806 335.971 156.046 339.722 149.648 451.137C156.157 450.868 162.364 452.994 168.872 452.725C183.551 452.117 198.527 449.118 213.206 448.51C212.403 443.412 211.201 435.79 210.806 426.454C210.5 419.207 210.537 412.016 210.491 404.751C210.291 374.103 217.686 360.97 209.028 345.45C208.541 344.573 207.598 343.561 207.357 343.176C207.571 343.524 207.668 343.733 193.806 335.971Z" fill="#FFB29E"/>
<path d="M207.576 344.666C207.697 344.086 208.045 344.016 208.379 344.504C212.757 350.854 231.312 388.805 239.729 379.548C249.213 369.117 249.213 370.306 249.213 370.306L260.54 377C260.805 377.153 260.916 377.478 260.805 377.761C258.967 382.473 243.977 419.082 226.22 407.764C208.463 396.446 201.235 381.939 200.385 380.138C200.33 380.017 200.316 379.883 200.339 379.753L207.576 344.666Z" fill="#FFB29E"/>
<path d="M145.836 402.7C145.836 402.7 171.28 404.938 177.612 390.059C183.944 375.18 175.876 377.636 183.457 364.141C191.038 350.646 202.045 334.212 185.569 312.746C169.093 291.28 151.397 360.785 151.397 360.785L131.105 375.185L145.836 402.7Z" fill="black"/>
<path d="M289.83 308.753C301.05 308.753 310.145 299.657 310.145 288.438C310.145 277.218 301.05 268.123 289.83 268.123C278.611 268.123 269.516 277.218 269.516 288.438C269.516 299.657 278.611 308.753 289.83 308.753Z" fill="#FFB29E"/>
<path d="M284.812 307.828L289.664 315.001L293.851 307.93L284.812 307.828Z" fill="#FFB29E"/>
<path d="M212.322 65.1378C212.322 65.1378 203.478 58.7175 202.74 64.8128C202.002 70.9082 205.215 74.6545 207.805 75.4019C210.391 76.1494 219.355 75.2348 221.393 69.7151C223.431 64.1954 217.215 59.321 212.322 65.1378Z" fill="#FFB29E"/>
<path d="M212.667 64.1132L211.753 63.9507C211.762 63.9043 212.533 59.457 211.168 57.5908L211.92 57.043C213.512 59.2341 212.7 63.9182 212.667 64.1132Z" fill="#FFB29E"/>
<path d="M131.001 112.211C131.001 112.211 123.081 108.028 121.196 113.813C119.311 119.592 122.914 122.707 125.082 123.691C127.25 124.676 134.96 124.286 137.899 119.188C140.838 114.091 136.557 107.123 131.001 112.211Z" fill="#FFB29E"/>
<path d="M131.307 110.991L130.43 110.684C130.444 110.642 131.925 106.376 130.875 104.31L131.702 103.893C132.932 106.307 131.377 110.8 131.307 110.991Z" fill="#FFB29E"/>
<path d="M262.694 178.29C262.694 178.29 269.843 172.895 272.628 178.304C275.413 183.712 271.867 186.776 269.88 188.094C267.893 189.413 260.99 190.973 257.276 186.409C253.562 181.851 256.394 174.149 262.694 178.29Z" fill="#FFB29E"/>
<path d="M262.421 176.643C262.412 176.444 262.25 171.69 264.134 169.74L264.803 170.386C263.192 172.052 263.35 176.56 263.35 176.606L262.421 176.643Z" fill="#FFB29E"/>
<path fill-rule="evenodd" clip-rule="evenodd" d="M296.981 282.344C297.174 282.034 297.742 281.816 298.198 281.814C298.654 281.813 299.092 282.001 299.417 282.337C299.743 282.673 299.93 283.13 299.937 283.61C299.945 284.089 299.773 284.553 299.459 284.9L290.223 297.051C290.065 297.231 289.873 297.375 289.66 297.475C289.447 297.576 289.217 297.63 288.984 297.634C288.751 297.639 288.519 297.594 288.303 297.502C288.086 297.41 287.89 297.273 287.725 297.099L281.606 290.657C281.435 290.489 281.298 290.288 281.204 290.064C281.109 289.84 281.058 289.598 281.054 289.353C281.05 289.108 281.092 288.864 281.18 288.637C281.267 288.409 281.397 288.203 281.562 288.029C281.726 287.856 281.923 287.719 282.139 287.627C282.355 287.535 282.586 287.49 282.819 287.495C283.052 287.499 283.282 287.553 283.495 287.652C283.708 287.752 283.899 287.896 284.058 288.076L288.902 293.172L296.937 282.397C296.951 282.378 297.158 282.271 297.174 282.254L296.981 282.344Z" fill="black"/>
<path fill-rule="evenodd" clip-rule="evenodd" d="M296.374 281.943C296.364 281.955 296.352 281.969 296.341 281.984L296.339 281.987L288.833 292.052L284.612 287.612C284.392 287.366 284.123 287.164 283.82 287.021C283.512 286.877 283.176 286.798 282.833 286.792C282.491 286.785 282.152 286.852 281.839 286.985C281.526 287.118 281.246 287.314 281.016 287.557C280.785 287.8 280.606 288.085 280.488 288.395C280.369 288.704 280.311 289.034 280.317 289.364C280.322 289.694 280.391 290.022 280.52 290.327C280.648 290.628 280.833 290.904 281.068 291.137L287.179 297.572C287.41 297.815 287.689 298.011 288.003 298.144C288.317 298.277 288.656 298.344 288.999 298.337C289.342 298.33 289.678 298.251 289.986 298.106C290.294 297.961 290.565 297.755 290.787 297.503L290.804 297.484L300.039 285.335C300.463 284.854 300.685 284.231 300.674 283.599C300.664 282.955 300.414 282.329 299.958 281.859C299.501 281.387 298.869 281.109 298.196 281.111C297.856 281.112 297.501 281.191 297.195 281.32C296.916 281.436 296.584 281.634 296.374 281.943ZM297.001 282.355C296.998 282.358 296.994 282.36 296.99 282.362C296.962 282.378 296.941 282.392 296.937 282.397L288.902 293.172L284.058 288.076C283.899 287.896 283.708 287.752 283.495 287.652C283.282 287.553 283.052 287.499 282.819 287.495C282.586 287.49 282.355 287.535 282.139 287.627C281.923 287.719 281.726 287.856 281.562 288.029C281.397 288.203 281.267 288.409 281.18 288.637C281.092 288.864 281.05 289.108 281.054 289.353C281.058 289.598 281.109 289.84 281.204 290.064C281.298 290.288 281.435 290.489 281.606 290.657L287.725 297.099C287.89 297.273 288.086 297.41 288.303 297.502C288.519 297.594 288.751 297.639 288.984 297.634C289.217 297.63 289.447 297.576 289.66 297.475C289.873 297.375 290.065 297.231 290.223 297.051L299.459 284.9C299.773 284.553 299.945 284.089 299.937 283.61C299.93 283.13 299.743 282.673 299.417 282.337C299.092 282.001 298.654 281.813 298.198 281.814C297.871 281.815 297.488 281.928 297.225 282.105C297.193 282.127 297.162 282.15 297.133 282.174C297.125 282.181 297.117 282.188 297.108 282.195C297.057 282.242 297.014 282.291 296.981 282.344L297.174 282.254C297.167 282.262 297.12 282.288 297.07 282.316C297.047 282.329 297.023 282.343 297.001 282.355Z" fill="black"/>
</svg>
