<svg width="121" height="16" viewBox="0 0 121 16" fill="none" xmlns="http://www.w3.org/2000/svg">
<path fill-rule="evenodd" clip-rule="evenodd" d="M9.14458 0.456039L10.6765 5.14874C10.7732 5.42746 11.0262 5.61079 11.3239 5.61079L16.3222 5.60333C16.9772 5.59586 17.2521 6.43203 16.7166 6.80616L12.6699 9.69461C12.4244 9.87047 12.3277 10.1641 12.4244 10.4429L13.979 15.1281C14.1799 15.737 13.4661 16.2496 12.9373 15.8689L8.89823 12.9655C8.65273 12.7971 8.33996 12.7971 8.10202 12.9655L4.06297 15.8689C3.53496 16.2505 2.82115 15.737 3.02125 15.1281L4.57583 10.4429C4.66496 10.1641 4.56827 9.8713 4.33033 9.69461L0.277819 6.80616C-0.250184 6.43203 0.0247475 5.59669 0.679707 5.60333L5.67808 5.61079C5.97572 5.61079 6.22879 5.42746 6.31791 5.14874L7.85736 0.456039C8.0583 -0.152013 8.94363 -0.152013 9.14458 0.456039Z" fill="#FFB29E"/>
<path fill-rule="evenodd" clip-rule="evenodd" d="M35.1446 0.456039L36.6765 5.14874C36.7732 5.42746 37.0262 5.61079 37.3239 5.61079L42.3222 5.60333C42.9772 5.59586 43.2521 6.43203 42.7166 6.80616L38.6699 9.69461C38.4244 9.87047 38.3277 10.1641 38.4244 10.4429L39.979 15.1281C40.1799 15.737 39.4661 16.2496 38.9373 15.8689L34.8982 12.9655C34.6527 12.7971 34.34 12.7971 34.102 12.9655L30.063 15.8689C29.535 16.2505 28.8211 15.737 29.0213 15.1281L30.5758 10.4429C30.665 10.1641 30.5683 9.8713 30.3303 9.69461L26.2778 6.80616C25.7498 6.43203 26.0247 5.59669 26.6797 5.60333L31.6781 5.61079C31.9757 5.61079 32.2288 5.42746 32.3179 5.14874L33.8574 0.456039C34.0583 -0.152013 34.9436 -0.152013 35.1446 0.456039Z" fill="#FFB29E"/>
<path fill-rule="evenodd" clip-rule="evenodd" d="M61.1446 0.456039L62.6765 5.14874C62.7732 5.42746 63.0262 5.61079 63.3239 5.61079L68.3222 5.60333C68.9772 5.59586 69.2521 6.43203 68.7166 6.80616L64.6699 9.69461C64.4244 9.87047 64.3277 10.1641 64.4244 10.4429L65.979 15.1281C66.1799 15.737 65.4661 16.2496 64.9373 15.8689L60.8982 12.9655C60.6527 12.7971 60.34 12.7971 60.102 12.9655L56.063 15.8689C55.535 16.2505 54.8211 15.737 55.0213 15.1281L56.5758 10.4429C56.665 10.1641 56.5683 9.8713 56.3303 9.69461L52.2778 6.80616C51.7498 6.43203 52.0247 5.59669 52.6797 5.60333L57.6781 5.61079C57.9757 5.61079 58.2288 5.42746 58.3179 5.14874L59.8574 0.456039C60.0583 -0.152013 60.9436 -0.152013 61.1446 0.456039Z" fill="#FFB29E"/>
<path fill-rule="evenodd" clip-rule="evenodd" d="M87.1446 0.456039L88.6765 5.14874C88.7732 5.42746 89.0262 5.61079 89.3239 5.61079L94.3222 5.60333C94.9772 5.59586 95.2521 6.43203 94.7166 6.80616L90.6699 9.69461C90.4244 9.87047 90.3277 10.1641 90.4244 10.4429L91.979 15.1281C92.1799 15.737 91.4661 16.2496 90.9373 15.8689L86.8982 12.9655C86.6527 12.7971 86.34 12.7971 86.102 12.9655L82.063 15.8689C81.535 16.2505 80.8211 15.737 81.0213 15.1281L82.5758 10.4429C82.665 10.1641 82.5683 9.8713 82.3303 9.69461L78.2778 6.80616C77.7498 6.43203 78.0247 5.59669 78.6797 5.60333L83.6781 5.61079C83.9757 5.61079 84.2288 5.42746 84.3179 5.14874L85.8574 0.456039C86.0583 -0.152013 86.9436 -0.152013 87.1446 0.456039Z" fill="#FFB29E"/>
<path fill-rule="evenodd" clip-rule="evenodd" d="M114.676 5.14874L113.145 0.456039C112.944 -0.152013 112.058 -0.152013 111.857 0.456039L110.318 5.14874C110.229 5.42746 109.976 5.61079 109.678 5.61079L104.68 5.60333C104.025 5.59669 103.75 6.43203 104.278 6.80616L108.33 9.69461C108.568 9.8713 108.665 10.1641 108.576 10.4429L107.021 15.1281C106.821 15.737 107.535 16.2505 108.063 15.8689L112.102 12.9655C112.34 12.7971 112.653 12.7971 112.898 12.9655L116.937 15.8689C117.466 16.2496 118.18 15.737 117.979 15.1281L116.424 10.4429C116.328 10.1641 116.424 9.87047 116.67 9.69461L120.717 6.80616C121.252 6.43203 120.977 5.59586 120.322 5.60333L115.324 5.61079C115.026 5.61079 114.773 5.42746 114.676 5.14874Z" fill="#EAE9E9"/>
</svg>
