<svg width="20" height="12" viewBox="0 0 20 12" fill="none" xmlns="http://www.w3.org/2000/svg">
<path d="M0.391409 0.411975C0.267338 0.541697 0.168901 0.695802 0.101736 0.865461C0.0345717 1.03512 -4.7134e-07 1.217 -4.6331e-07 1.40069C-4.55281e-07 1.58438 0.0345717 1.76626 0.101736 1.93592C0.168901 2.10558 0.267338 2.25969 0.391409 2.38941L9.24845 11.6733C9.34705 11.7769 9.46418 11.859 9.59311 11.9151C9.72205 11.9711 9.86027 12 9.99986 12C10.1394 12 10.2777 11.9711 10.4066 11.9151C10.5355 11.859 10.6527 11.7769 10.7513 11.6733L19.6083 2.38941C20.1306 1.84198 20.1306 0.959398 19.6083 0.411974C19.0861 -0.135451 18.244 -0.135451 17.7218 0.411974L9.99453 8.50045L2.26727 0.400804C1.75567 -0.135449 0.903007 -0.13545 0.391409 0.411975Z" fill="black"/>
</svg>
