<svg width="12" height="20" viewBox="0 0 12 20" fill="none" xmlns="http://www.w3.org/2000/svg">
<path d="M0.411975 19.6086C0.541697 19.7327 0.695801 19.8311 0.865461 19.8983C1.03512 19.9654 1.21701 20 1.40069 20C1.58438 20 1.76626 19.9654 1.93592 19.8983C2.10558 19.8311 2.25969 19.7327 2.38941 19.6086L11.6733 10.7516C11.7769 10.6529 11.859 10.5358 11.9151 10.4069C11.9711 10.278 12 10.1397 12 10.0001C12 9.86055 11.9711 9.72233 11.9151 9.59339C11.859 9.46446 11.7769 9.34734 11.6733 9.24873L2.38941 0.391689C1.84198 -0.130568 0.959401 -0.130568 0.411976 0.391689C-0.135448 0.913945 -0.135448 1.75595 0.411976 2.27821L8.50046 10.0055L0.400805 17.7327C-0.135448 18.2443 -0.13545 19.097 0.411975 19.6086Z" fill="black"/>
</svg>
