<svg width="12" height="20" viewBox="0 0 12 20" fill="none" xmlns="http://www.w3.org/2000/svg">
<path d="M11.588 0.391409C11.4583 0.267338 11.3042 0.168901 11.1345 0.101737C10.9649 0.0345722 10.783 0 10.5993 0C10.4156 0 10.2337 0.0345722 10.0641 0.101737C9.89442 0.168901 9.74031 0.267338 9.61059 0.391409L0.326717 9.24845C0.223149 9.34705 0.140982 9.46418 0.0849197 9.59311C0.0288573 9.72205 0 9.86027 0 9.99986C0 10.1394 0.0288573 10.2777 0.0849197 10.4066C0.140982 10.5355 0.223149 10.6527 0.326717 10.7513L9.61059 19.6083C10.158 20.1306 11.0406 20.1306 11.588 19.6083C12.1355 19.0861 12.1355 18.244 11.588 17.7218L3.49955 9.99453L11.5992 2.26727C12.1354 1.75567 12.1355 0.903007 11.588 0.391409Z" fill="black"/>
</svg>
