<svg width="184" height="60" viewBox="0 0 184 60" fill="none" xmlns="http://www.w3.org/2000/svg">
<path d="M177.185 59.6992H6.81481C3.06667 59.6992 0 56.3523 0 52.2617V7.63672C0 3.5461 3.06667 0.19922 6.81481 0.19922H177.185C180.933 0.19922 184 3.5461 184 7.63672V52.2617C184 56.3523 180.933 59.6992 177.185 59.6992Z" fill="black"/>
<path d="M145.821 45.8693H148.377V28.786H145.821V45.8693ZM168.781 34.936L165.856 42.3433H165.774L162.74 34.936H159.993L164.544 45.2953L161.948 51.049H164.613L171.624 34.936H168.781ZM154.322 43.9286C153.488 43.9286 152.326 43.505 152.326 42.48C152.326 41.168 153.775 40.6623 155.032 40.6623C156.153 40.6623 156.686 40.9083 157.369 41.2363C157.164 42.808 155.798 43.9286 154.322 43.9286ZM154.636 34.567C152.791 34.567 150.878 35.3733 150.085 37.1773L152.354 38.1203C152.832 37.1773 153.734 36.863 154.691 36.863C156.003 36.863 157.356 37.6556 157.369 39.0633V39.241C156.905 38.9813 155.921 38.585 154.704 38.585C152.258 38.585 149.784 39.9243 149.784 42.4253C149.784 44.7076 151.78 46.1836 154.021 46.1836C155.729 46.1836 156.686 45.4183 157.274 44.5163H157.356V45.842H159.816V39.2956C159.816 36.2616 157.561 34.567 154.636 34.567ZM138.865 37.0133H135.243V31.164H138.865C140.764 31.164 141.858 32.7493 141.858 34.0886C141.858 35.4143 140.778 37.0133 138.865 37.0133ZM138.81 28.786H132.701V45.8693H135.243V39.3913H138.81C141.639 39.3913 144.413 37.3413 144.413 34.0886C144.413 30.836 141.625 28.786 138.81 28.786ZM105.491 43.9286C103.728 43.9286 102.252 42.4526 102.252 40.43C102.252 38.38 103.728 36.8903 105.491 36.8903C107.226 36.8903 108.593 38.3936 108.593 40.43C108.593 42.4526 107.226 43.9286 105.491 43.9286ZM108.415 35.8926H108.32C107.746 35.2093 106.652 34.5943 105.258 34.5943C102.347 34.5943 99.6825 37.15 99.6825 40.43C99.6825 43.6826 102.347 46.2246 105.258 46.2246C106.639 46.2246 107.746 45.6096 108.32 44.899H108.415V45.7326C108.415 47.9603 107.226 49.1493 105.313 49.1493C103.755 49.1493 102.785 48.0286 102.388 47.0856L100.161 48.015C100.803 49.5593 102.498 51.4453 105.313 51.4453C108.306 51.4453 110.834 49.6823 110.834 45.391V34.9496H108.415V35.8926V35.8926ZM112.597 45.8693H115.153V28.786H112.597V45.8693ZM118.911 40.2386C118.843 37.9973 120.647 36.8493 121.945 36.8493C122.957 36.8493 123.818 37.355 124.105 38.0793L118.911 40.2386ZM126.838 38.298C126.36 36.9996 124.884 34.5943 121.863 34.5943C118.87 34.5943 116.383 36.945 116.383 40.4026C116.383 43.6553 118.843 46.211 122.15 46.211C124.815 46.211 126.36 44.5846 127.002 43.628L125.02 42.3023C124.364 43.2726 123.462 43.915 122.15 43.915C120.852 43.915 119.923 43.3273 119.335 42.152L127.111 38.9403L126.838 38.298ZM64.9145 36.3846V38.8446H70.8185C70.6408 40.225 70.1761 41.25 69.4791 41.947C68.6181 42.808 67.2788 43.751 64.9281 43.751C61.2928 43.751 58.4501 40.8263 58.4501 37.191C58.4501 33.5556 61.2928 30.631 64.9281 30.631C66.8825 30.631 68.3175 31.3963 69.3698 32.394L71.1055 30.6583C69.6295 29.2506 67.6751 28.171 64.9145 28.171C59.9398 28.171 55.7578 32.23 55.7578 37.2046C55.7578 42.1793 59.9398 46.2383 64.9145 46.2383C67.6068 46.2383 69.6295 45.35 71.2148 43.71C72.8411 42.0836 73.3468 39.7876 73.3468 37.9426C73.3468 37.3686 73.3058 36.8356 73.2101 36.3983L64.9145 36.3846ZM80.0571 43.9286C78.2941 43.9286 76.7771 42.48 76.7771 40.4026C76.7771 38.3116 78.2941 36.8766 80.0571 36.8766C81.8201 36.8766 83.3371 38.3116 83.3371 40.4026C83.3371 42.48 81.8201 43.9286 80.0571 43.9286ZM80.0571 34.5943C76.8455 34.5943 74.2215 37.0406 74.2215 40.4026C74.2215 43.751 76.8455 46.211 80.0571 46.211C83.2688 46.211 85.8928 43.751 85.8928 40.4026C85.8928 37.0406 83.2825 34.5943 80.0571 34.5943ZM92.7945 43.9286C91.0315 43.9286 89.5145 42.48 89.5145 40.4026C89.5145 38.3116 91.0315 36.8766 92.7945 36.8766C94.5575 36.8766 96.0745 38.3116 96.0745 40.4026C96.0745 42.48 94.5575 43.9286 92.7945 43.9286ZM92.7945 34.5943C89.5828 34.5943 86.9588 37.0406 86.9588 40.4026C86.9588 43.751 89.5828 46.211 92.7945 46.211C96.0061 46.211 98.6301 43.751 98.6301 40.4026C98.6301 37.0406 96.0061 34.5943 92.7945 34.5943Z" fill="white"/>
<path d="M13.9412 15.1693C13.5448 15.5929 13.3125 16.2489 13.3125 17.0826V47.3133C13.3125 48.1606 13.5448 48.8166 13.9412 49.2403L14.0368 49.3359L30.9698 32.4029V32.1979V31.9929L14.0368 15.0599L13.9412 15.1693Z" fill="url(#paint0_linear)"/>
<path d="M30.957 31.9964V32.2014V32.4064L36.6014 38.0508L36.7244 37.9824L43.4074 34.1831C45.3207 33.0898 45.3207 31.3268 43.4074 30.2334L36.7244 26.4341L36.6014 26.3658L30.957 31.9964Z" fill="url(#paint1_linear)"/>
<path d="M13.9375 49.2303C14.5662 49.8999 15.6048 49.9819 16.7802 49.3123L36.7472 37.9689L30.9662 32.2016L13.9375 49.2303Z" fill="url(#paint2_linear)"/>
<path d="M13.9375 15.1706L30.9662 32.1992L36.7335 26.4319L16.7665 15.0886C16.2198 14.7742 15.7005 14.6239 15.2358 14.6239C14.7165 14.6239 14.2655 14.8152 13.9375 15.1706Z" fill="url(#paint3_linear)"/>
<g opacity="0.2">
<g opacity="0.2">
<path opacity="0.2" d="M36.6183 37.8531L16.7743 49.1281C15.6673 49.7568 14.6696 49.7158 14.041 49.1418L13.9453 49.2375L14.041 49.3331C14.6833 49.9071 15.6673 49.9481 16.7743 49.3195L36.7413 37.9761L36.6183 37.8531Z" fill="black"/>
</g>
</g>
<g opacity="0.12">
<g opacity="0.12">
<path opacity="0.12" d="M13.9412 49.0352C13.5448 48.6116 13.3125 47.9556 13.3125 47.1082V47.3132C13.3125 48.1606 13.5448 48.8166 13.9412 49.2402L14.0505 49.1446L13.9412 49.0352Z" fill="black"/>
</g>
</g>
<g opacity="0.12">
<g opacity="0.12">
<path opacity="0.12" d="M43.4212 33.9761L36.6016 37.8438L36.7246 37.9668L43.4212 34.1811C44.3779 33.6345 44.8562 32.9238 44.8562 32.2131C44.7742 32.8555 44.2822 33.4841 43.4212 33.9761Z" fill="black"/>
</g>
</g>
<g opacity="0.25">
<g opacity="0.25">
<path opacity="0.25" d="M16.7799 15.2877L43.4299 30.4304C44.2909 30.9224 44.7829 31.551 44.8649 32.207C44.8649 31.4964 44.3866 30.772 43.4299 30.239L16.7799 15.0827C14.8666 14.003 13.3086 14.8914 13.3086 17.0917V17.2967C13.3086 15.11 14.8666 14.208 16.7799 15.2877Z" fill="white"/>
</g>
</g>
<path d="M57.1383 21.6273H58.5869C59.5299 21.6273 60.2816 21.354 60.8419 20.8073C61.4023 20.2607 61.6756 19.509 61.6756 18.525C61.6756 17.5547 61.4023 16.803 60.8419 16.2563C60.2953 15.7097 59.5436 15.4363 58.5869 15.4363H57.1383V21.6273ZM56.0859 22.6387V14.4387H58.5869C59.8443 14.4387 60.8556 14.8213 61.6073 15.573C62.3589 16.3247 62.7416 17.3223 62.7416 18.5387C62.7416 19.755 62.3589 20.739 61.6073 21.5043C60.8556 22.256 59.8579 22.6387 58.5869 22.6387H56.0859Z" fill="white"/>
<path d="M57.1383 21.6273H58.5869C59.5299 21.6273 60.2816 21.354 60.8419 20.8073C61.4023 20.2607 61.6756 19.509 61.6756 18.525C61.6756 17.5547 61.4023 16.803 60.8419 16.2563C60.2953 15.7097 59.5436 15.4363 58.5869 15.4363H57.1383V21.6273ZM56.0859 22.6387V14.4387H58.5869C59.8443 14.4387 60.8556 14.8213 61.6073 15.573C62.3589 16.3247 62.7416 17.3223 62.7416 18.5387C62.7416 19.755 62.3589 20.739 61.6073 21.5043C60.8556 22.256 59.8579 22.6387 58.5869 22.6387H56.0859Z" stroke="white" stroke-width="0.36449" stroke-miterlimit="13.3333"/>
<path d="M64.2305 14.4348H65.2828V22.6348H64.2305V14.4348Z" fill="white" stroke="white" stroke-width="0.36449" stroke-miterlimit="13.3333"/>
<path d="M69.4755 22.8184C68.8741 22.8184 68.3001 22.627 67.7261 22.2307C67.1521 21.8344 66.7831 21.3014 66.6055 20.5907L67.5621 20.208C67.6715 20.659 67.9038 21.0417 68.2728 21.3424C68.6418 21.6567 69.0381 21.807 69.4755 21.807C69.9401 21.807 70.3228 21.684 70.6508 21.4517C70.9788 21.2057 71.1428 20.8777 71.1428 20.4677C71.1428 20.003 70.9788 19.6614 70.6508 19.4017C70.3228 19.1694 69.8171 18.937 69.1065 18.7184C68.3821 18.486 67.8355 18.199 67.4665 17.83C67.0975 17.461 66.9061 16.9964 66.9061 16.436C66.9061 15.8484 67.1385 15.3427 67.6031 14.9054C68.0678 14.468 68.6828 14.2494 69.4208 14.2494C70.1178 14.2494 70.6781 14.427 71.1155 14.7687C71.5528 15.124 71.8398 15.493 71.9628 15.903L71.0061 16.2994C70.9241 16.0534 70.7601 15.8074 70.4868 15.5887C70.2135 15.37 69.8718 15.2607 69.4345 15.2607C69.0245 15.2607 68.6828 15.37 68.3958 15.6024C68.1225 15.821 67.9721 16.108 67.9721 16.436C67.9721 16.7367 68.1088 16.9964 68.3685 17.215C68.6281 17.42 69.0245 17.6114 69.5301 17.789C69.9401 17.9257 70.2681 18.0487 70.5415 18.1717C70.8148 18.2947 71.0881 18.4587 71.3615 18.6637C71.6348 18.8687 71.8535 19.1147 71.9901 19.4154C72.1405 19.7024 72.2088 20.044 72.2088 20.454C72.2088 20.8504 72.1268 21.2057 71.9628 21.52C71.7988 21.8344 71.5801 22.0804 71.3205 22.258C71.0471 22.4357 70.7465 22.586 70.4321 22.668C70.1315 22.7637 69.8035 22.8184 69.4755 22.8184Z" fill="white"/>
<path d="M69.4755 22.8184C68.8741 22.8184 68.3001 22.627 67.7261 22.2307C67.1521 21.8344 66.7831 21.3014 66.6055 20.5907L67.5621 20.208C67.6715 20.659 67.9038 21.0417 68.2728 21.3424C68.6418 21.6567 69.0381 21.807 69.4755 21.807C69.9401 21.807 70.3228 21.684 70.6508 21.4517C70.9788 21.2057 71.1428 20.8777 71.1428 20.4677C71.1428 20.003 70.9788 19.6614 70.6508 19.4017C70.3228 19.1694 69.8171 18.937 69.1065 18.7184C68.3821 18.486 67.8355 18.199 67.4665 17.83C67.0975 17.461 66.9061 16.9964 66.9061 16.436C66.9061 15.8484 67.1385 15.3427 67.6031 14.9054C68.0678 14.468 68.6828 14.2494 69.4208 14.2494C70.1178 14.2494 70.6781 14.427 71.1155 14.7687C71.5528 15.124 71.8398 15.493 71.9628 15.903L71.0061 16.2994C70.9241 16.0534 70.7601 15.8074 70.4868 15.5887C70.2135 15.37 69.8718 15.2607 69.4345 15.2607C69.0245 15.2607 68.6828 15.37 68.3958 15.6024C68.1225 15.821 67.9721 16.108 67.9721 16.436C67.9721 16.7367 68.1088 16.9964 68.3685 17.215C68.6281 17.42 69.0245 17.6114 69.5301 17.789C69.9401 17.9257 70.2681 18.0487 70.5415 18.1717C70.8148 18.2947 71.0881 18.4587 71.3615 18.6637C71.6348 18.8687 71.8535 19.1147 71.9901 19.4154C72.1405 19.7024 72.2088 20.044 72.2088 20.454C72.2088 20.8504 72.1268 21.2057 71.9628 21.52C71.7988 21.8344 71.5801 22.0804 71.3205 22.258C71.0471 22.4357 70.7465 22.586 70.4321 22.668C70.1315 22.7637 69.8035 22.8184 69.4755 22.8184Z" stroke="white" stroke-width="0.36449" stroke-miterlimit="13.3333"/>
<path d="M74.775 18.3063H76.538C76.9753 18.3063 77.3307 18.156 77.604 17.8553C77.8773 17.5547 78.0003 17.2267 78.0003 16.8713C78.0003 16.516 77.8637 16.188 77.604 15.8873C77.3443 15.5867 76.989 15.4363 76.538 15.4363H74.775V18.3063ZM74.775 22.6387H73.7227V14.4387H76.5243C77.2213 14.4387 77.8227 14.671 78.3283 15.1357C78.834 15.6003 79.0937 16.1743 79.0937 16.885C79.0937 17.5957 78.834 18.156 78.3147 18.6207C77.809 19.0853 77.2077 19.3177 76.5107 19.3177H74.775V22.6387Z" fill="white"/>
<path d="M74.775 18.3063H76.538C76.9753 18.3063 77.3307 18.156 77.604 17.8553C77.8773 17.5547 78.0003 17.2267 78.0003 16.8713C78.0003 16.516 77.8637 16.188 77.604 15.8873C77.3443 15.5867 76.989 15.4363 76.538 15.4363H74.775V18.3063ZM74.775 22.6387H73.7227V14.4387H76.5243C77.2213 14.4387 77.8227 14.671 78.3283 15.1357C78.834 15.6003 79.0937 16.1743 79.0937 16.885C79.0937 17.5957 78.834 18.156 78.3147 18.6207C77.809 19.0853 77.2077 19.3177 76.5107 19.3177H74.775V22.6387Z" stroke="white" stroke-width="0.36449" stroke-miterlimit="13.3333"/>
<path d="M81.884 20.8894C82.4853 21.5044 83.237 21.8051 84.1117 21.8051C84.9863 21.8051 85.738 21.5044 86.3393 20.8894C86.9407 20.2744 87.255 19.4954 87.255 18.5387C87.255 17.5821 86.9407 16.7894 86.3393 16.1881C85.738 15.5731 84.9863 15.2587 84.1117 15.2587C83.237 15.2587 82.4853 15.5731 81.884 16.1881C81.2827 16.7894 80.9683 17.5821 80.9683 18.5387C80.9683 19.4954 81.2827 20.2744 81.884 20.8894ZM87.1183 21.5727C86.312 22.4064 85.3143 22.8164 84.1117 22.8164C82.909 22.8164 81.9113 22.4064 81.105 21.5727C80.2987 20.7527 79.9023 19.7277 79.9023 18.5387C79.9023 17.3497 80.2987 16.3247 81.105 15.4911C81.9113 14.6574 82.909 14.2474 84.1117 14.2474C85.3007 14.2474 86.2983 14.6574 87.1183 15.4911C87.9247 16.3247 88.3347 17.3361 88.3347 18.5251C88.321 19.7277 87.9247 20.7527 87.1183 21.5727Z" fill="white"/>
<path d="M81.884 20.8894C82.4853 21.5044 83.237 21.8051 84.1117 21.8051C84.9863 21.8051 85.738 21.5044 86.3393 20.8894C86.9407 20.2744 87.255 19.4954 87.255 18.5387C87.255 17.5821 86.9407 16.7894 86.3393 16.1881C85.738 15.5731 84.9863 15.2587 84.1117 15.2587C83.237 15.2587 82.4853 15.5731 81.884 16.1881C81.2827 16.7894 80.9683 17.5821 80.9683 18.5387C80.9683 19.4954 81.2827 20.2744 81.884 20.8894ZM87.1183 21.5727C86.312 22.4064 85.3143 22.8164 84.1117 22.8164C82.909 22.8164 81.9113 22.4064 81.105 21.5727C80.2987 20.7527 79.9023 19.7277 79.9023 18.5387C79.9023 17.3497 80.2987 16.3247 81.105 15.4911C81.9113 14.6574 82.909 14.2474 84.1117 14.2474C85.3007 14.2474 86.2983 14.6574 87.1183 15.4911C87.9247 16.3247 88.3347 17.3361 88.3347 18.5251C88.321 19.7277 87.9247 20.7527 87.1183 21.5727Z" stroke="white" stroke-width="0.36449" stroke-miterlimit="13.3333"/>
<path d="M89.8047 22.6348V14.4348H91.0894L95.08 20.8171H95.121L95.08 19.2318V14.4348H96.1324V22.6348H95.0254L90.857 15.9518H90.816L90.857 17.5371V22.6348H89.8047Z" fill="white"/>
<path d="M89.8047 22.6348V14.4348H91.0894L95.08 20.8171H95.121L95.08 19.2318V14.4348H96.1324V22.6348H95.0254L90.857 15.9518H90.816L90.857 17.5371V22.6348H89.8047Z" stroke="white" stroke-width="0.36449" stroke-miterlimit="13.3333"/>
<path d="M98.0039 14.4348H99.0562V22.6348H98.0039V14.4348Z" fill="white" stroke="white" stroke-width="0.36449" stroke-miterlimit="13.3333"/>
<path d="M101.986 21.6273H104.104C104.514 21.6273 104.842 21.4907 105.088 21.2037C105.348 20.9167 105.471 20.616 105.471 20.2743C105.471 19.9327 105.334 19.632 105.075 19.345C104.815 19.0717 104.473 18.9213 104.05 18.9213H101.986V21.6273ZM101.986 17.951H103.899C104.296 17.951 104.624 17.8143 104.856 17.5547C105.102 17.295 105.211 17.008 105.211 16.6937C105.211 16.3793 105.102 16.0923 104.856 15.8327C104.637 15.573 104.323 15.4363 103.94 15.4363H101.986V17.951ZM100.934 22.6387V14.4387H103.899C104.542 14.4387 105.102 14.6573 105.567 15.081C106.031 15.5047 106.277 16.0377 106.277 16.68C106.277 17.0763 106.182 17.418 105.977 17.7187C105.772 17.992 105.498 18.2243 105.157 18.3747V18.4157C105.567 18.5523 105.895 18.7847 106.154 19.1263C106.414 19.468 106.551 19.8507 106.551 20.3017C106.551 20.9713 106.305 21.5317 105.813 21.969C105.321 22.4063 104.733 22.6387 104.063 22.6387H100.934Z" fill="white"/>
<path d="M101.986 21.6273H104.104C104.514 21.6273 104.842 21.4907 105.088 21.2037C105.348 20.9167 105.471 20.616 105.471 20.2743C105.471 19.9327 105.334 19.632 105.075 19.345C104.815 19.0717 104.473 18.9213 104.05 18.9213H101.986V21.6273ZM101.986 17.951H103.899C104.296 17.951 104.624 17.8143 104.856 17.5547C105.102 17.295 105.211 17.008 105.211 16.6937C105.211 16.3793 105.102 16.0923 104.856 15.8327C104.637 15.573 104.323 15.4363 103.94 15.4363H101.986V17.951ZM100.934 22.6387V14.4387H103.899C104.542 14.4387 105.102 14.6573 105.567 15.081C106.031 15.5047 106.277 16.0377 106.277 16.68C106.277 17.0763 106.182 17.418 105.977 17.7187C105.772 17.992 105.498 18.2243 105.157 18.3747V18.4157C105.567 18.5523 105.895 18.7847 106.154 19.1263C106.414 19.468 106.551 19.8507 106.551 20.3017C106.551 20.9713 106.305 21.5317 105.813 21.969C105.321 22.4063 104.733 22.6387 104.063 22.6387H100.934Z" stroke="white" stroke-width="0.36449" stroke-miterlimit="13.3333"/>
<path d="M107.961 22.6348V14.4348H109.013V21.6234H112.567V22.6348H107.961Z" fill="white"/>
<path d="M107.961 22.6348V14.4348H109.013V21.6234H112.567V22.6348H107.961Z" stroke="white" stroke-width="0.36449" stroke-miterlimit="13.3333"/>
<path d="M118.686 15.4422H114.955V18.0389H118.317V19.0229H114.955V21.6195H118.686V22.6309H113.902V14.4309H118.686V15.4422Z" fill="white"/>
<path d="M118.686 15.4422H114.955V18.0389H118.317V19.0229H114.955V21.6195H118.686V22.6309H113.902V14.4309H118.686V15.4422Z" stroke="white" stroke-width="0.36449" stroke-miterlimit="13.3333"/>
<path d="M127.869 15.4422H124.138V18.0389H127.5V19.0229H124.138V21.6195H127.869V22.6309H123.086V14.4309H127.869V15.4422Z" fill="white"/>
<path d="M127.869 15.4422H124.138V18.0389H127.5V19.0229H124.138V21.6195H127.869V22.6309H123.086V14.4309H127.869V15.4422Z" stroke="white" stroke-width="0.36449" stroke-miterlimit="13.3333"/>
<path d="M129.52 22.6348V14.4348H130.804L134.795 20.8171H134.836L134.781 19.2318V14.4348H135.834V22.6348H134.74L130.572 15.9518H130.531L130.572 17.5371V22.6348H129.52Z" fill="white"/>
<path d="M129.52 22.6348V14.4348H130.804L134.795 20.8171H134.836L134.781 19.2318V14.4348H135.834V22.6348H134.74L130.572 15.9518H130.531L130.572 17.5371V22.6348H129.52Z" stroke="white" stroke-width="0.36449" stroke-miterlimit="13.3333"/>
<defs>
<linearGradient id="paint0_linear" x1="29.4744" y1="16.7908" x2="-1.10686" y2="47.372" gradientUnits="userSpaceOnUse">
<stop stop-color="#00A0FF"/>
<stop offset="0.00657445" stop-color="#00A1FF"/>
<stop offset="0.2601" stop-color="#00BEFF"/>
<stop offset="0.5122" stop-color="#00D2FF"/>
<stop offset="0.7604" stop-color="#00DFFF"/>
<stop offset="1" stop-color="#00E3FF"/>
</linearGradient>
<linearGradient id="paint1_linear" x1="45.8943" y1="32.2157" x2="1.80221" y2="32.2157" gradientUnits="userSpaceOnUse">
<stop stop-color="#FFE000"/>
<stop offset="0.4087" stop-color="#FFBD00"/>
<stop offset="0.7754" stop-color="#FFA500"/>
<stop offset="1" stop-color="#FF9C00"/>
</linearGradient>
<linearGradient id="paint2_linear" x1="33.5873" y1="35.3188" x2="-7.88336" y2="76.7895" gradientUnits="userSpaceOnUse">
<stop stop-color="#FF3A44"/>
<stop offset="1" stop-color="#C31162"/>
</linearGradient>
<linearGradient id="paint3_linear" x1="9.6622" y1="5.09889" x2="28.1805" y2="23.6172" gradientUnits="userSpaceOnUse">
<stop stop-color="#32A071"/>
<stop offset="0.0685" stop-color="#2DA771"/>
<stop offset="0.4762" stop-color="#15CF74"/>
<stop offset="0.8009" stop-color="#06E775"/>
<stop offset="1" stop-color="#00F076"/>
</linearGradient>
</defs>
</svg>
