<svg width="44" height="44" viewBox="0 0 44 44" fill="none" xmlns="http://www.w3.org/2000/svg">
<circle cx="21.75" cy="22.25" r="21.75" fill="black"/>
<path d="M26.4042 18.535C25.7969 18.5605 25.3048 17.9789 25.3048 17.4356C25.3048 16.8858 25.7969 16.3106 26.4042 16.3361C26.9731 16.3617 27.5036 16.8539 27.5036 17.4356C27.5036 18.0172 26.9794 18.5094 26.4042 18.535ZM21.6806 26.8061C19.143 26.838 17.0273 24.6392 17.0273 22.1528C17.0273 19.6663 19.143 17.4675 21.6806 17.4995C24.1734 17.525 26.3339 19.6408 26.3339 22.1528C26.3339 24.6648 24.1734 26.7805 21.6806 26.8061ZM25.1833 14.8404H18.1203C17.1871 14.8404 16.2155 15.2367 15.5699 15.9015C14.9243 16.5599 14.4833 17.5123 14.5089 18.4519V25.9815C14.4897 26.9211 14.9243 27.8735 15.5699 28.5319C16.2219 29.1966 17.1871 29.5929 18.1203 29.5929H25.1833C26.1229 29.6121 27.0753 29.1775 27.7337 28.5319C28.3984 27.8799 28.7947 26.9147 28.7947 25.9815V18.4583C28.7947 17.525 28.3984 16.5535 27.7337 15.9079C27.0817 15.2623 26.1293 14.8213 25.1833 14.8404Z" fill="#F9F9F8"/>
<path d="M21.6583 19.1095C20.0476 19.1286 18.6094 20.5349 18.6094 22.1584C18.6094 23.7819 20.0412 25.1881 21.6583 25.2073C23.2946 25.2265 24.7072 23.7883 24.7072 22.1584C24.7072 20.5285 23.301 19.0967 21.6583 19.1095Z" fill="#F9F9F8"/>
<path d="M30.0986 25.9861C30.1369 28.6706 27.8231 30.8759 25.1832 30.9014H18.1202C15.4292 30.9398 13.2304 28.6259 13.2048 25.9861V18.4564C13.2304 15.8166 15.4356 13.5027 18.1202 13.541H25.1832C27.8231 13.5666 30.1369 15.7654 30.0986 18.4564V25.9861ZM28.2513 10.5688H15.1224C12.3419 10.5305 10.092 12.9274 10.0664 15.6504V28.6834C10.092 31.4064 12.3419 33.8033 15.1224 33.765H28.2513C30.9871 33.7394 33.3457 31.4639 33.3073 28.6834V15.6504C33.3457 12.8763 30.9871 10.5944 28.2513 10.5688Z" fill="#F9F9F8"/>
</svg>
