<svg width="44" height="44" viewBox="0 0 44 44" fill="none" xmlns="http://www.w3.org/2000/svg">
<path d="M43.5 22.3847C43.5 10.2948 33.7574 0.5 21.75 0.5C9.73448 0.5 0 10.2948 0 22.3847C0 33.3052 7.95098 42.36 18.3516 44V28.7121H12.8284V22.3861H18.3516V17.5619C18.3516 12.0784 21.5937 9.05009 26.5635 9.05009C28.9438 9.05009 31.4355 9.47684 31.4355 9.47684V14.8619H28.6882C25.9913 14.8619 25.1484 16.5511 25.1484 18.2813V22.3847H31.18L30.2108 28.7108H25.1484V43.9986C35.5409 42.3586 43.5 33.3038 43.5 22.3834V22.3847Z" fill="black"/>
</svg>
