<svg width="44" height="44" viewBox="0 0 44 44" fill="none" xmlns="http://www.w3.org/2000/svg">
<circle cx="22.25" cy="22.25" r="21.75" fill="black"/>
<path d="M36.2405 13.3811C35.2185 13.8542 34.1218 14.1763 32.9753 14.3208C34.1468 13.5782 35.0503 12.4085 35.474 11.0087C34.3773 11.6987 33.1622 12.1916 31.8661 12.461C30.8317 11.2978 29.3549 10.5684 27.716 10.5684C24.5817 10.5684 22.0331 13.2496 22.0331 16.5618C22.0331 17.035 22.0829 17.4884 22.1826 17.9287C17.4655 17.6725 13.278 15.2869 10.4739 11.6658C9.98789 12.553 9.70748 13.5782 9.70748 14.6757C9.70748 16.7524 10.7107 18.5859 12.2374 19.6637C11.3089 19.6308 10.4303 19.3614 9.66386 18.9145C9.66386 18.9408 9.66386 18.9671 9.66386 18.9868C9.66386 21.8915 11.6205 24.3099 14.219 24.862C13.7454 25 13.2406 25.0723 12.7234 25.0723C12.3558 25.0723 12.0006 25.0328 11.6517 24.9671C12.3745 27.3461 14.4745 29.0811 16.9608 29.1271C15.0166 30.7306 12.5677 31.6901 9.90689 31.6901C9.452 31.6901 8.99711 31.6638 8.55469 31.6046C11.0659 33.3067 14.057 34.299 17.2599 34.299C27.7098 34.299 33.4239 25.1708 33.4239 17.2519C33.4239 16.989 33.4177 16.7327 33.4052 16.4764C34.5144 15.6352 35.474 14.5771 36.2405 13.3811Z" fill="#F9F9F8"/>
</svg>
