<svg width="115" height="67" viewBox="0 0 115 67" fill="none" xmlns="http://www.w3.org/2000/svg">
<path d="M10.2237 55.4719C10.2237 55.4719 -3.46236 44.6517 3.97865 28.2283C11.4197 11.8049 13.1307 11.2837 13.1307 11.2837C13.1307 11.2837 21.1151 -3.00168 36.6346 3.17401C52.1538 9.34451 62.6641 28.3493 63.0953 37.0089C63.5264 45.6685 66.1887 63.6252 40.1471 65.0543C28.3372 65.6983 21.2297 64.795 10.2237 55.4719Z" fill="#FFB29E"/>
<path d="M57.7883 39.0857C57.7883 40.3194 57.6093 41.4436 57.2511 42.4584C56.8929 43.4733 56.3855 44.3389 55.7288 45.0552C55.0722 45.7715 54.2763 46.3287 53.341 46.7267C52.4257 47.1246 51.4109 47.3236 50.2966 47.3236C49.1823 47.3236 48.1674 47.1246 47.2521 46.7267C46.3368 46.3287 45.5508 45.7715 44.8941 45.0552C44.2375 44.3389 43.7201 43.4733 43.3421 42.4584C42.9839 41.4436 42.8048 40.3194 42.8048 39.0857C42.8048 37.852 42.9839 36.7376 43.3421 35.7427C43.7201 34.7279 44.2375 33.8623 44.8941 33.146C45.5707 32.4296 46.3666 31.8824 47.2819 31.5043C48.1973 31.1064 49.2022 30.9074 50.2966 30.9074C51.391 30.9074 52.3959 31.1064 53.3112 31.5043C54.2464 31.8824 55.0424 32.4296 55.699 33.146C56.3557 33.8623 56.8631 34.7279 57.2212 35.7427C57.5993 36.7376 57.7883 37.852 57.7883 39.0857ZM54.0872 39.0857C54.0872 37.5336 53.749 36.3098 53.0724 35.4144C52.4158 34.4991 51.4905 34.0414 50.2966 34.0414C49.1027 34.0414 48.1674 34.4991 47.4909 35.4144C46.8342 36.3098 46.5059 37.5336 46.5059 39.0857C46.5059 40.6576 46.8342 41.9013 47.4909 42.8166C48.1674 43.7319 49.1027 44.1896 50.2966 44.1896C51.4905 44.1896 52.4158 43.7319 53.0724 42.8166C53.749 41.9013 54.0872 40.6576 54.0872 39.0857Z" fill="black"/>
<path d="M71.8662 39.0558C71.8662 37.5236 71.5578 36.3098 70.9409 35.4144C70.344 34.519 69.3888 34.0712 68.0755 34.0712C67.4786 34.0712 66.9115 34.1608 66.3742 34.3399C65.8569 34.519 65.439 34.7179 65.1206 34.9368V43.921C65.3793 43.9807 65.7076 44.0404 66.1056 44.1001C66.5235 44.1399 67.0209 44.1598 67.598 44.1598C68.9312 44.1598 69.9758 43.712 70.732 42.8166C71.4881 41.9013 71.8662 40.6477 71.8662 39.0558ZM75.5673 39.1155C75.5673 40.3691 75.3783 41.5033 75.0002 42.5181C74.642 43.5131 74.1147 44.3687 73.4183 45.085C72.7417 45.8014 71.9159 46.3486 70.9409 46.7267C69.9659 47.1047 68.8615 47.2938 67.6278 47.2938C66.4339 47.2938 65.2898 47.2042 64.1953 47.0251C63.1208 46.8461 62.2254 46.6471 61.509 46.4282V24.3409L65.1206 23.7439V31.8327C65.5385 31.6138 66.0459 31.4148 66.6428 31.2357C67.2597 31.0566 67.9362 30.9671 68.6725 30.9671C69.7669 30.9671 70.7419 31.1661 71.5976 31.564C72.4731 31.9421 73.1994 32.4893 73.7764 33.2057C74.3535 33.922 74.7913 34.7876 75.0897 35.8024C75.4081 36.7973 75.5673 37.9017 75.5673 39.1155Z" fill="black"/>
<path d="M92.95 23.6677V26.4594H85.7049V46.6992H82.4812V26.4594H75.236V23.6677H92.95Z" fill="black"/>
<path d="M105.261 47.1977C103.754 47.1977 102.447 46.9651 101.339 46.4998C100.232 46.0345 99.3232 45.403 98.6142 44.6054C97.9052 43.7856 97.3734 42.8218 97.0189 41.714C96.6866 40.6062 96.5204 39.4097 96.5204 38.1247V23.6677H99.7442V37.7591C99.7442 40.0634 100.254 41.7362 101.273 42.7775C102.292 43.8189 103.622 44.3395 105.261 44.3395C106.081 44.3395 106.823 44.2177 107.488 43.974C108.175 43.7081 108.762 43.3093 109.249 42.7775C109.737 42.2458 110.113 41.57 110.379 40.7502C110.645 39.9083 110.778 38.9112 110.778 37.7591V23.6677H114.002V38.1247C114.002 39.4097 113.825 40.6062 113.47 41.714C113.138 42.8218 112.606 43.7856 111.875 44.6054C111.166 45.403 110.257 46.0345 109.15 46.4998C108.064 46.9651 106.768 47.1977 105.261 47.1977ZM109.282 17.6854L104.596 22.2386L103.034 20.8427L107.288 15.7246L109.282 17.6854Z" fill="black"/>
<path d="M38.8271 38.0436C38.8271 39.4254 38.6751 40.7105 38.3711 41.8989C38.0948 43.0873 37.5835 44.1375 36.8373 45.0495C36.1187 45.9339 35.1376 46.6386 33.894 47.1637C32.6779 47.6612 31.1441 47.9099 29.2924 47.9099C28.3528 47.9099 27.4822 47.827 26.6808 47.6612C25.9069 47.523 25.2022 47.3433 24.5666 47.1222C23.9309 46.8735 23.3782 46.6248 22.9084 46.3761C22.4385 46.0997 22.0654 45.8371 21.7891 45.5884L23.3644 42.3964C23.9447 42.8109 24.6909 43.2531 25.6029 43.7229C26.5426 44.1651 27.7033 44.3862 29.0852 44.3862C31.075 44.3862 32.5259 43.8887 33.438 42.8938C34.35 41.8713 34.806 40.1301 34.806 37.6705V18.5597H38.8271V38.0436Z" fill="black"/>
</svg>
