<svg width="638" height="523" viewBox="0 0 638 523" fill="none" xmlns="http://www.w3.org/2000/svg">
<path d="M307.622 178.651C376.158 202.536 447.713 166.962 474.924 146.189C679.34 48.8412 590.807 230.433 583.551 343.653C576.296 456.873 358.532 493.809 300.883 459.854C243.235 425.9 75.4255 387.515 45.0318 363.757C14.638 339.998 18.7663 252.413 66.6772 192.773C114.588 133.133 221.951 148.794 307.622 178.651Z" fill="white"/>
<path d="M236.648 450.472H431.539C445.367 450.472 456.574 439.299 456.574 425.513V26.9709C456.574 13.185 445.367 2.01172 431.539 2.01172H236.648C222.82 2.01172 211.613 13.185 211.613 26.9709V425.519C211.613 439.299 222.82 450.472 236.648 450.472Z" fill="#FCD8C9"/>
<path d="M225.413 33.0586H442.773V407.351H225.413V33.0586Z" fill="#F9F9F9"/>
<path d="M371.062 45.4644L433.477 58.5488L420.65 119.719L358.235 106.635L371.062 45.4644Z" fill="#F2F2F0"/>
<path d="M333.378 141.15L417.746 126.104L432.497 208.792L348.128 223.838L333.378 141.15Z" fill="#F2F2F0"/>
<path d="M258.435 123.356L320.785 152.232L296.031 205.668L233.681 176.792L258.435 123.356Z" fill="#F2F2F0"/>
<path d="M347.721 257.144L424.918 243.377L436.205 306.648L359.008 320.415L347.721 257.144Z" fill="#F2F2F0"/>
<path d="M267.347 210.715L343.215 230.311L328.751 286.297L252.883 266.702L267.347 210.715Z" fill="#FCD8C9"/>
<path d="M347.308 331.085L430.828 350.27L418.56 403.663L335.04 384.478L347.308 331.085Z" fill="#F2F2F0"/>
<path d="M238.143 313.874L322.512 298.828L334.605 366.622L250.237 381.669L238.143 313.874Z" fill="#F2F2F0"/>
<path d="M358.246 181.731C358.246 181.731 356.524 172.108 355.404 169.625C354.289 167.143 351.548 163.523 347.389 161.122C343.23 158.715 340.495 156.832 339.375 157.328C338.255 157.823 346.513 163.663 346.168 165.353C345.828 167.038 344.344 166.95 343.325 167.65C342.312 168.343 340.28 169.73 340.382 172.213C340.483 174.696 346.972 184.015 351.03 186.003C355.088 187.99 358.234 184.12 358.234 184.12V181.731H358.246Z" fill="#FCD8C9"/>
<path d="M470.559 484.969L469.624 491.868H459.064L458.483 484.969H470.559Z" fill="#FCD0B9"/>
<path d="M404.824 485.134L403.247 490.143H395.049L394.474 484.969L404.824 485.134Z" fill="#FCD0B9"/>
<path d="M469.726 490.531C469.726 490.531 472.306 492.116 473.46 494.936C474.614 497.755 473.017 502.552 468.772 503.257C464.527 503.962 439.434 503.943 439.434 503.943C439.434 503.943 431.965 502.378 432.444 499.296C432.924 496.214 437.904 490.812 454.738 490.294C468.966 489.851 469.726 490.531 469.726 490.531Z" fill="black"/>
<path d="M404.342 490.531C404.342 490.531 406.815 492.116 407.921 494.936C409.027 497.755 407.496 502.552 403.428 503.257C399.36 503.962 375.312 503.943 375.312 503.943C375.312 503.943 368.154 502.378 368.614 499.296C369.074 496.214 373.84 490.793 389.978 490.294C404.208 489.851 404.342 490.531 404.342 490.531Z" fill="black"/>
<path d="M431.934 109.024C427.821 104.316 421.805 102.163 421.805 102.163C420.946 102.031 418.385 102.049 417.514 102.061C416.036 102.085 413.934 102.157 413.905 102.163C409.751 103.41 410.307 101.899 409.574 105.953C407.494 117.421 402.808 129.068 412.175 141.525C414.449 144.548 419.531 141.807 421.358 142.209C423.186 142.605 422.962 145.184 422.561 146.293C421.971 147.936 421.479 149.718 419.783 154.258C418.855 156.747 416.913 159.872 416.913 159.872C416.913 159.872 429.281 164.472 436.322 161.317C440.041 159.65 438.66 156.795 438.648 150.887C438.643 147.151 438.465 145.435 438.941 142.161C440.333 129.122 437.491 134.574 437.457 127.293C437.457 127.293 438.78 116.863 431.934 109.024Z" fill="#FCD8C9"/>
<path d="M413.08 113.368C413.08 113.368 403.834 111.924 402.158 107.95C400.037 102.921 402.372 98.3168 407.114 98.6175C411.855 98.9181 411.713 101.766 416.876 100.274C422.04 98.7826 432.1 100.227 436.349 104.236C440.597 108.245 447.947 109.937 445.856 118.939C444.341 125.46 446.866 131.232 441.203 138.36C436.563 144.196 429.515 141.573 428.909 137.057C428.303 132.541 436.034 124.776 428.969 120.295C426.336 118.627 425.148 124.31 423.858 124.31C419.782 124.304 422.088 119.34 421.785 117.082C421.398 114.235 413.08 113.368 413.08 113.368Z" fill="black"/>
<path d="M416.683 159.451C416.683 159.451 401.929 158.682 394.467 170.568C387.005 182.458 381.688 206.875 375.12 201.724C368.558 196.573 358.408 182.505 358.408 182.505L351.344 186.765L368.949 230.307C368.949 230.307 375.663 248.141 391.773 230.307L395.998 226.099L394.806 271.87C407.071 271.87 418.699 283.162 430.964 283.162C441.902 283.162 454.261 278.407 465.199 278.407C461.804 253.082 460.005 225.826 459.648 210.984C458.953 181.841 458.964 158.822 438.683 158.973L416.683 159.451Z" fill="#FFB29E"/>
<path d="M449.674 162.422C449.674 162.422 482.782 190.509 484.119 224.858C485.456 259.208 462.753 277.987 462.753 277.987L460.78 269.277C460.78 269.277 468.708 235.585 465.704 228.207C462.701 220.829 453.291 198.818 453.291 198.818L449.674 162.422Z" fill="#FFB29E"/>
<path d="M394.555 271.088C406.802 271.088 426.447 277.367 438.629 276.091C459.644 273.892 454.244 271.088 465.744 271.088C469.266 299.278 471.299 329.75 473.231 362.174C476.114 410.5 477.334 464.4 470.695 486.694H458.328C454.321 464.183 448.132 445.71 444.131 423.199C440.375 402.099 438.809 376.966 435.059 355.865C428.863 369.464 424.857 385.908 420.617 406.99C414.409 437.832 408.794 472.731 404.733 486.688H394.148C394.148 486.688 379.084 359.075 394.555 271.088Z" fill="black"/>
<path d="M318.614 24.4341H351.3C352.278 24.4341 353.07 23.6618 353.07 22.7092C353.07 21.7566 352.278 20.9844 351.3 20.9844H318.614C317.636 20.9844 316.844 21.7566 316.844 22.7092C316.844 23.6562 317.636 24.4341 318.614 24.4341Z" fill="#FFB29E"/>
<path d="M339.272 441.847C332.603 441.847 327.197 436.441 327.197 429.773C327.197 423.105 332.603 417.699 339.272 417.699C345.941 417.699 351.348 423.105 351.348 429.773C351.348 436.441 345.941 441.847 339.272 441.847Z" fill="#FFB29E"/>
<path d="M243.317 65.9897L319.98 46.4922L339.093 121.621L262.429 141.119L243.317 65.9897Z" fill="#FCD8C9"/>
<path d="M254.153 74.3375C254.551 74.092 254.679 73.5659 254.434 73.1684L243.518 55.4211C243.273 55.0236 242.747 54.8949 242.349 55.1405C241.952 55.386 241.823 55.9121 242.069 56.3096L252.984 74.0569C253.235 74.4544 253.756 74.583 254.153 74.3375Z" fill="#FFB29E"/>
<path d="M254.129 74.3435C254.147 74.3318 254.147 74.3201 254.141 74.3084L242.361 55.1523C242.355 55.1406 242.337 55.1406 242.331 55.1464L241.975 55.3627C241.963 55.3686 241.963 55.3861 241.969 55.3919L253.533 74.1973C253.656 74.4019 253.925 74.4662 254.129 74.3435Z" fill="#F2F2F0"/>
<path d="M239.855 57.1917C236.443 57.1917 233.676 54.4253 233.676 51.0128C233.676 47.6003 236.443 44.834 239.855 44.834C243.268 44.834 246.035 47.6003 246.035 51.0128C246.035 54.4253 243.268 57.1917 239.855 57.1917Z" fill="#FFB29E"/>
<path d="M237.479 51.3748C236.307 51.3748 235.357 50.4248 235.357 49.2528C235.357 48.0809 236.307 47.1309 237.479 47.1309C238.651 47.1309 239.602 48.0809 239.602 49.2528C239.602 50.4248 238.651 51.3748 237.479 51.3748Z" fill="#FCD8C9"/>
<path d="M333.904 235.552C333.506 235.307 333.378 234.781 333.623 234.383L344.539 216.636C344.784 216.238 345.31 216.11 345.708 216.355C346.105 216.601 346.234 217.127 345.988 217.524L335.073 235.272C334.828 235.675 334.307 235.798 333.904 235.552Z" fill="#EF9D87"/>
<path d="M333.933 235.56C333.916 235.549 333.916 235.537 333.922 235.525L345.702 216.369C345.708 216.357 345.725 216.357 345.731 216.363L346.088 216.58C346.1 216.585 346.1 216.603 346.094 216.609L334.53 235.414C334.401 235.625 334.138 235.689 333.933 235.56Z" fill="#F2F2F0"/>
<path d="M348.199 218.414C344.786 218.414 342.02 215.648 342.02 212.235C342.02 208.823 344.786 206.057 348.199 206.057C351.612 206.057 354.379 208.823 354.379 212.235C354.379 215.648 351.612 218.414 348.199 218.414Z" fill="#FFB29E"/>
<path d="M346.077 211.568C344.905 211.568 343.955 210.618 343.955 209.446C343.955 208.274 344.905 207.324 346.077 207.324C347.249 207.324 348.199 208.274 348.199 209.446C348.199 210.618 347.249 211.568 346.077 211.568Z" fill="#FCD8C9"/>
<path d="M257.876 83.0483L315.991 69.5859C316.595 69.4455 316.963 68.8841 316.809 68.3335C316.655 67.783 316.038 67.4483 315.434 67.5886L257.319 81.0511C256.714 81.1914 256.347 81.7528 256.501 82.3034C256.655 82.854 257.272 83.1886 257.876 83.0483Z" fill="#F2F2F0"/>
<path d="M259.603 91.668L317.717 76.7098C318.322 76.5538 318.689 75.9301 318.535 75.3183C318.381 74.7065 317.765 74.3347 317.16 74.4906L259.046 89.4489C258.441 89.6048 258.073 90.2286 258.228 90.8403C258.382 91.4521 258.998 91.824 259.603 91.668Z" fill="#F2F2F0"/>
<path d="M263.01 98.5717L319.464 85.1093C320.052 84.969 320.409 84.4076 320.259 83.857C320.109 83.3064 319.51 82.9717 318.923 83.1121L262.469 96.5745C261.882 96.7148 261.525 97.2762 261.674 97.8268C261.824 98.3774 262.423 98.7121 263.01 98.5717Z" fill="#F2F2F0"/>
<path d="M272.822 228.469L329.271 243.455C329.859 243.609 330.458 243.248 330.614 242.644C330.764 242.04 330.412 241.423 329.824 241.264L273.375 226.278C272.787 226.124 272.188 226.485 272.032 227.089C271.877 227.699 272.228 228.315 272.822 228.469Z" fill="#F2F2F0"/>
<path d="M269.39 237.094L327.5 252.08C328.105 252.234 328.722 251.873 328.882 251.269C329.037 250.665 328.675 250.048 328.07 249.889L269.96 234.903C269.355 234.749 268.738 235.11 268.578 235.714C268.417 236.318 268.785 236.934 269.39 237.094Z" fill="#F2F2F0"/>
<path d="M269.367 243.993L325.818 258.979C326.406 259.133 327.005 258.771 327.161 258.167C327.311 257.563 326.959 256.947 326.371 256.787L269.92 241.801C269.332 241.647 268.733 242.008 268.577 242.613C268.427 243.217 268.779 243.833 269.367 243.993Z" fill="#F2F2F0"/>
<path d="M320.797 361.981L324.527 361.904C324.521 361.796 324.006 350.879 308.613 350.879C293.195 350.879 292.856 361.815 292.849 361.924L296.58 361.962C296.58 361.949 296.655 359.85 298.181 357.835C300.166 355.217 303.67 353.893 308.607 353.893C320.414 353.886 320.791 361.648 320.797 361.981Z" fill="black"/>
<path d="M342.844 382.311V400.235C342.844 404.752 339.251 408.412 334.817 408.412H282.408C277.974 408.412 274.382 404.752 274.382 400.235V382.305C308.804 395.947 339.955 383.527 342.844 382.311Z" fill="#FFB29E"/>
<path d="M274.388 382.305V369.609C274.388 365.066 277.999 361.387 282.458 361.387H334.774C339.233 361.387 342.844 365.066 342.844 369.609V382.311C339.955 383.527 308.804 395.948 274.388 382.305Z" fill="#FCD8C9"/>
<path d="M306.448 385.439H310.776C312.321 385.439 313.57 386.713 313.57 388.287V389.01C313.57 390.584 312.321 391.858 310.776 391.858H306.448C304.903 391.858 303.654 390.584 303.654 389.01V388.287C303.66 386.713 304.91 385.439 306.448 385.439ZM307.353 390.367H309.727C310.706 390.367 311.498 389.644 311.498 388.754C311.498 387.865 310.706 387.142 309.727 387.142H307.353C306.373 387.142 305.582 387.865 305.582 388.754C305.582 389.644 306.373 390.367 307.353 390.367Z" fill="black"/>
<path d="M247.201 408.531L264.718 404.496C265.675 404.276 266.271 403.308 266.048 402.337L246.839 318.973C246.615 318.002 245.656 317.392 244.698 317.613L227.182 321.648C226.224 321.868 225.628 322.836 225.852 323.807L245.06 407.171C245.284 408.143 246.244 408.752 247.201 408.531Z" fill="#FFB29E"/>
<path d="M253.736 396.852C251.11 397.457 248.484 395.789 247.87 393.126C247.257 390.463 248.888 387.814 251.514 387.209C254.141 386.604 256.767 388.272 257.381 390.935C257.994 393.598 256.363 396.248 253.736 396.852Z" fill="#FCD8C9"/>
<path d="M253.583 396.193C251.315 396.715 249.047 395.275 248.516 392.975C247.986 390.675 249.395 388.388 251.663 387.865C253.931 387.343 256.199 388.784 256.729 391.084C257.26 393.384 255.851 395.671 253.583 396.193Z" fill="black"/>
<path d="M229.825 326.78L244.566 323.385L256.4 374.741L241.659 378.137L229.825 326.78Z" fill="#FCD8C9"/>
<path d="M234.294 335.264L244.266 332.967C244.555 332.9 244.731 332.609 244.664 332.32C244.597 332.027 244.309 331.847 244.023 331.913L234.051 334.21C233.762 334.276 233.586 334.567 233.653 334.857C233.716 335.147 234.005 335.33 234.294 335.264Z" fill="#FFB29E"/>
<path d="M235.177 339.11L245.149 336.812C245.438 336.746 245.614 336.455 245.547 336.166C245.48 335.873 245.191 335.693 244.906 335.758L234.934 338.056C234.645 338.122 234.469 338.413 234.535 338.702C234.6 338.996 234.888 339.176 235.177 339.11Z" fill="#FFB29E"/>
<path d="M236.067 342.955L246.04 340.658C246.328 340.592 246.504 340.301 246.438 340.011C246.37 339.719 246.082 339.538 245.797 339.604L235.824 341.901C235.536 341.968 235.359 342.259 235.426 342.548C235.489 342.838 235.778 343.022 236.067 342.955Z" fill="#FFB29E"/>
<path d="M236.95 346.799L246.922 344.502C247.211 344.435 247.387 344.144 247.321 343.855C247.253 343.562 246.965 343.382 246.68 343.448L236.707 345.745C236.418 345.812 236.242 346.102 236.309 346.392C236.373 346.685 236.661 346.865 236.95 346.799Z" fill="#FFB29E"/>
<path d="M237.833 350.647L247.805 348.349C248.094 348.283 248.27 347.992 248.203 347.703C248.136 347.41 247.848 347.23 247.562 347.295L237.59 349.593C237.301 349.659 237.125 349.95 237.192 350.239C237.255 350.529 237.544 350.713 237.833 350.647Z" fill="#FFB29E"/>
<path d="M238.72 354.49L248.692 352.193C248.981 352.127 249.157 351.836 249.09 351.546C249.023 351.254 248.734 351.074 248.449 351.139L238.477 353.436C238.188 353.503 238.012 353.794 238.078 354.083C238.142 354.373 238.431 354.557 238.72 354.49Z" fill="#FFB29E"/>
<path d="M239.606 358.334L249.579 356.037C249.867 355.97 250.044 355.68 249.977 355.39C249.909 355.097 249.621 354.917 249.336 354.983L239.363 357.28C239.075 357.347 238.899 357.638 238.965 357.927C239.029 358.22 239.318 358.401 239.606 358.334Z" fill="#FFB29E"/>
<path d="M240.493 362.18L250.465 359.883C250.754 359.816 250.93 359.525 250.864 359.236C250.796 358.943 250.508 358.763 250.223 358.829L240.25 361.126C239.961 361.192 239.785 361.483 239.852 361.773C239.915 362.063 240.204 362.246 240.493 362.18Z" fill="#FFB29E"/>
<path d="M241.38 366.026L251.352 363.728C251.641 363.662 251.817 363.371 251.75 363.082C251.683 362.789 251.395 362.609 251.109 362.674L241.137 364.972C240.848 365.038 240.672 365.329 240.739 365.618C240.803 365.912 241.091 366.092 241.38 366.026Z" fill="#FFB29E"/>
<path d="M242.266 369.873L252.239 367.576C252.528 367.509 252.704 367.219 252.637 366.929C252.57 366.637 252.281 366.456 251.996 366.522L242.024 368.819C241.735 368.886 241.559 369.177 241.625 369.466C241.689 369.756 241.978 369.94 242.266 369.873Z" fill="#FFB29E"/>
</svg>
