<svg width="1440" height="1155" viewBox="0 0 1440 1155" fill="none" xmlns="http://www.w3.org/2000/svg">
<g clip-path="url(#clip0)">
<rect width="1440" height="1155" fill="white"/>
<mask id="mask0" mask-type="alpha" maskUnits="userSpaceOnUse" x="-385" y="105" width="2248" height="3969">
<path d="M1054.46 4033.35C1054.46 4033.35 1924.16 4277.53 1859.2 3058.54C1794.24 1839.56 1960.13 1433.75 1580.37 995.949C1200.6 557.991 1299.91 84.9047 730.271 247.165C512.103 309.31 250.214 27.6407 72.2993 127.708C-214.318 288.916 -409.104 762.343 -382.111 1322.81C-338.361 2231.19 -147.854 2637.62 -60.3763 3234.92C-134.201 4178.76 587.519 4069.58 587.519 4069.58L1054.46 4033.35Z" fill="#F9F9F8"/>
</mask>
<g mask="url(#mask0)">
<rect x="-29" y="75.0039" width="1624" height="2844" fill="#F9F9F8"/>
</g>
<path d="M1450 635.5C1364 377.1 1131.5 255.167 1026 226.5L1186.5 582L1479.5 910C1505.5 926.167 1536 893.9 1450 635.5Z" fill="#F9F9F8"/>
<path d="M1609.5 404.301C1422.12 477.742 1274 367.5 1207.5 317L1332.8 758.392L1571.4 934.5L1609.5 404.301Z" fill="#F9F9F8"/>
</g>
<defs>
<clipPath id="clip0">
<rect width="1440" height="1155" fill="white"/>
</clipPath>
</defs>
</svg>
